  0
SECTION
  2
HEADER
  9
$ACADVER
  1
AC1009
  9
$INSBASE
 10
0.0
 20
0.0
 30
0.0
  9
$EXTMIN
 10
-126.6292775606786023
 20
-183.9999999999994884
 30
-4050.815156743146872
  9
$EXTMAX
 10
1525.8524133615740084
 20
1640.8351753389099486
 30
0.0
  9
$LIMMIN
 10
0.0
 20
0.0
  9
$LIMMAX
 10
12.0
 20
9.0
  9
$ORTHOMODE
 70
     0
  9
$REGENMODE
 70
     1
  9
$FILLMODE
 70
     1
  9
$QTEXTMODE
 70
     0
  9
$MIRRTEXT
 70
     0
  9
$DRAGMODE
 70
     2
  9
$LTSCALE
 40
1.0
  9
$OSMODE
 70
    37
  9
$ATTMODE
 70
     1
  9
$TEXTSIZE
 40
0.2
  9
$TRACEWID
 40
0.05
  9
$TEXTSTYLE
  7
STANDARD
  9
$CLAYER
  8
DOORS
  9
$CELTYPE
  6
BYLAYER
  9
$CECOLOR
 62
   256
  9
$DIMSCALE
 40
1.0
  9
$DIMASZ
 40
0.18
  9
$DIMEXO
 40
0.0625
  9
$DIMDLI
 40
0.38
  9
$DIMRND
 40
0.0
  9
$DIMDLE
 40
0.0
  9
$DIMEXE
 40
0.18
  9
$DIMTP
 40
0.0
  9
$DIMTM
 40
0.0
  9
$DIMTXT
 40
0.18
  9
$DIMCEN
 40
0.09
  9
$DIMTSZ
 40
0.0
  9
$DIMTOL
 70
     0
  9
$DIMLIM
 70
     0
  9
$DIMTIH
 70
     1
  9
$DIMTOH
 70
     1
  9
$DIMSE1
 70
     0
  9
$DIMSE2
 70
     0
  9
$DIMTAD
 70
     0
  9
$DIMZIN
 70
     0
  9
$DIMBLK
  1

  9
$DIMASO
 70
     1
  9
$DIMSHO
 70
     1
  9
$DIMPOST
  1

  9
$DIMAPOST
  1

  9
$DIMALT
 70
     0
  9
$DIMALTD
 70
     2
  9
$DIMALTF
 40
25.3999999999999986
  9
$DIMLFAC
 40
1.0
  9
$DIMTOFL
 70
     0
  9
$DIMTVP
 40
0.0
  9
$DIMTIX
 70
     0
  9
$DIMSOXD
 70
     0
  9
$DIMSAH
 70
     0
  9
$DIMBLK1
  1

  9
$DIMBLK2
  1

  9
$DIMSTYLE
  2
STANDARD
  9
$DIMCLRD
 70
     0
  9
$DIMCLRE
 70
     0
  9
$DIMCLRT
 70
     0
  9
$DIMTFAC
 40
1.0
  9
$DIMGAP
 40
0.09
  9
$LUNITS
 70
     2
  9
$LUPREC
 70
     4
  9
$SKETCHINC
 40
0.1
  9
$FILLETRAD
 40
0.0
  9
$AUNITS
 70
     0
  9
$AUPREC
 70
     0
  9
$MENU
  1
.
  9
$ELEVATION
 40
0.0
  9
$PELEVATION
 40
0.0
  9
$THICKNESS
 40
0.0
  9
$LIMCHECK
 70
     0
  9
$BLIPMODE
 70
     0
  9
$CHAMFERA
 40
0.0
  9
$CHAMFERB
 40
0.0
  9
$SKPOLY
 70
     0
  9
$TDCREATE
 40
2456488.2239667940884829
  9
$TDUPDATE
 40
2456488.5307404980994761
  9
$TDINDWG
 40
0.1811425694
  9
$TDUSRTIMER
 40
0.1810485995
  9
$USRTIMER
 70
     1
  9
$ANGBASE
 50
0.0
  9
$ANGDIR
 70
     0
  9
$PDMODE
 70
     0
  9
$PDSIZE
 40
0.0
  9
$PLINEWID
 40
0.0
  9
$COORDS
 70
     1
  9
$SPLFRAME
 70
     0
  9
$SPLINETYPE
 70
     6
  9
$SPLINESEGS
 70
     8
  9
$ATTDIA
 70
     1
  9
$ATTREQ
 70
     1
  9
$HANDLING
 70
     1
  9
$HANDSEED
  5
7E5
  9
$SURFTAB1
 70
     6
  9
$SURFTAB2
 70
     6
  9
$SURFTYPE
 70
     6
  9
$SURFU
 70
     6
  9
$SURFV
 70
     6
  9
$UCSNAME
  2

  9
$UCSORG
 10
0.0
 20
0.0
 30
0.0
  9
$UCSXDIR
 10
1.0
 20
0.0
 30
0.0
  9
$UCSYDIR
 10
0.0
 20
1.0
 30
0.0
  9
$PUCSNAME
  2

  9
$PUCSORG
 10
0.0
 20
0.0
 30
0.0
  9
$PUCSXDIR
 10
1.0
 20
0.0
 30
0.0
  9
$PUCSYDIR
 10
0.0
 20
1.0
 30
0.0
  9
$USERI1
 70
     0
  9
$USERI2
 70
     0
  9
$USERI3
 70
     0
  9
$USERI4
 70
     0
  9
$USERI5
 70
     0
  9
$USERR1
 40
0.0
  9
$USERR2
 40
0.0
  9
$USERR3
 40
0.0
  9
$USERR4
 40
0.0
  9
$USERR5
 40
0.0
  9
$WORLDVIEW
 70
     1
  9
$SHADEDGE
 70
     3
  9
$SHADEDIF
 70
    70
  9
$TILEMODE
 70
     1
  9
$MAXACTVP
 70
    64
  9
$PLIMCHECK
 70
     0
  9
$PEXTMIN
 10
0.0
 20
0.0
 30
0.0
  9
$PEXTMAX
 10
0.0
 20
0.0
 30
0.0
  9
$PLIMMIN
 10
0.0
 20
0.0
  9
$PLIMMAX
 10
12.0
 20
9.0
  9
$UNITMODE
 70
     0
  9
$VISRETAIN
 70
     1
  9
$PLINEGEN
 70
     0
  9
$PSLTSCALE
 70
     1
  0
ENDSEC
  0
SECTION
  2
TABLES
  0
TABLE
  2
VPORT
 70
     1
  0
VPORT
  2
*ACTIVE
 70
     0
 10
0.0
 20
0.0
 11
1.0
 21
1.0
 12
0.0
 22
0.0
 13
0.0
 23
0.0
 14
0.5
 24
0.5
 15
0.5
 25
0.5
 16
-0.0000000000087539
 26
0.0
 36
7377.1390726049703517
 17
638.1548221597131487
 27
656.0385712633919866
 37
-3555.1758334749360984
 40
3713.938704016597967
 41
1.3356545961002779
 42
50.0000000000000711
 43
0.0
 44
0.0
 50
0.0
 51
0.0
 71
     0
 72
  1000
 73
     1
 74
     3
 75
     0
 76
     1
 77
     0
 78
     0
  0
ENDTAB
  0
TABLE
  2
LTYPE
 70
     2
  0
LTYPE
  2
CONTINUOUS
 70
     0
  3
Solid line
 72
    65
 73
     0
 40
0.0
  0
ENDTAB
  0
TABLE
  2
LAYER
 70
     6
  0
LAYER
  2
0
 70
     0
 62
    -7
  6
CONTINUOUS
  0
LAYER
  2
ROOMS
 70
     0
 62
     1
  6
CONTINUOUS
  0
LAYER
  2
DOORS
 70
     2
 62
     4
  6
CONTINUOUS
  0
LAYER
  2
OUTLINE
 70
     0
 62
     6
  6
CONTINUOUS
  0
LAYER
  2
WINDOWS
 70
     0
 62
     3
  6
CONTINUOUS
  0
LAYER
  2
LAYER2
 70
     0
 62
     2
  6
CONTINUOUS
  0
ENDTAB
  0
TABLE
  2
STYLE
 70
     2
  0
STYLE
  2
STANDARD
 70
     0
 40
0.0
 41
1.0
 50
0.0
 71
     0
 42
0.2
  3
txt
  4

  0
STYLE
  2
ANNOTATIVE
 70
     0
 40
0.0
 41
1.0
 50
0.0
 71
     0
 42
0.2
  3
txt
  4

  0
ENDTAB
  0
TABLE
  2
VIEW
 70
     1
  0
ENDTAB
  0
TABLE
  2
UCS
 70
     0
  0
ENDTAB
  0
TABLE
  2
APPID
 70
    10
  0
APPID
  2
ACAD
 70
     0
  0
APPID
  2
ACADANNOPO
 70
     0
  0
APPID
  2
ACADANNOTATIVE
 70
     0
  0
APPID
  2
ACAD_DSTYLE_DIMJAG
 70
     0
  0
APPID
  2
ACAD_DSTYLE_DIMTALN
 70
     0
  0
APPID
  2
ACAD_MLEADERVER
 70
     0
  0
APPID
  2
ACAD_EXEMPT_FROM_CAD_STANDARDS
 70
     0
  0
APPID
  2
ACAD_NAV_VCDISPLAY
 70
     0
  0
APPID
  2
ACAECLAYERSTANDARD
 70
     0
  0
APPID
  2
ACCMTRANSPARENCY
 70
     0
  0
ENDTAB
  0
TABLE
  2
DIMSTYLE
 70
     3
  0
DIMSTYLE
  2
STANDARD
 70
     0
  3

  4

  5

  6

  7

 40
1.0
 41
0.18
 42
0.0625
 43
0.38
 44
0.18
 45
0.0
 46
0.0
 47
0.0
 48
0.0
140
0.18
141
0.09
142
0.0
143
25.3999999999999986
144
1.0
145
0.0
146
1.0
147
0.09
 71
     0
 72
     0
 73
     1
 74
     1
 75
     0
 76
     0
 77
     0
 78
     0
170
     0
171
     2
172
     0
173
     0
174
     0
175
     0
176
     0
177
     0
178
     0
  0
DIMSTYLE
  2
ANNOTATIVE
 70
     0
  3

  4

  5

  6

  7

 40
0.0
 41
0.18
 42
0.0625
 43
0.38
 44
0.18
 45
0.0
 46
0.0
 47
0.0
 48
0.0
140
0.18
141
0.09
142
0.0
143
25.3999999999999986
144
1.0
145
0.0
146
1.0
147
0.09
 71
     0
 72
     0
 73
     1
 74
     1
 75
     0
 76
     0
 77
     0
 78
     0
170
     0
171
     2
172
     0
173
     0
174
     0
175
     0
176
     0
177
     0
178
     0
  0
ENDTAB
  0
ENDSEC
  0
SECTION
  2
BLOCKS
  0
BLOCK
  8
0
  2
$MODEL_SPACE
 70
     0
 10
0.0
 20
0.0
 30
0.0
  3
$MODEL_SPACE
  1

  0
ENDBLK
  5
21
  8
0
  0
BLOCK
 67
     1
  8
0
  2
$PAPER_SPACE
 70
     0
 10
0.0
 20
0.0
 30
0.0
  3
$PAPER_SPACE
  1

  0
ENDBLK
  5
5B
 67
     1
  8
0
  0
ENDSEC
  0
SECTION
  2
ENTITIES
  0
LINE
  5
1DA
  8
0
 10
60.0000000000001066
 20
1477.0
 30
0.0
 11
60.0000000000001634
 21
1408.0
 31
0.0
  0
LINE
  5
1DB
  8
0
 10
60.0000000000001634
 20
1408.0
 30
0.0
 11
30.0000000000006999
 21
1408.0
 31
0.0
  0
LINE
  5
1EB
  8
0
 10
60.0000000000001066
 20
1477.0
 30
0.0
 11
463.0000000000001137
 21
1477.0
 31
0.0
  0
LINE
  5
1EC
  8
0
 10
463.0000000000001137
 20
1477.0
 30
0.0
 11
463.0000000000001137
 21
1367.0
 31
0.0
  0
LINE
  5
1ED
  8
0
 10
463.0000000000001137
 20
1367.0
 30
0.0
 11
490.5000000000002274
 21
1367.0
 31
0.0
  0
LINE
  5
1EE
  8
0
 10
517.0
 20
1367.0
 30
0.0
 11
517.0
 21
1477.0
 31
0.0
  0
LINE
  5
1EF
  8
0
 10
490.5000000000002274
 20
1477.0
 30
0.0
 11
463.0000000000001137
 21
1477.0
 31
0.0
  0
LINE
  5
1F0
  8
0
 10
490.5000000000001137
 20
1367.0
 30
0.0
 11
448.0000000000001137
 21
1367.0
 31
0.0
  0
LINE
  5
1F2
  8
0
 10
30.0000000000005898
 20
1158.0
 30
0.0
 11
135.0000000000003126
 21
1158.0
 31
0.0
  0
LINE
  5
1F3
  8
0
 10
135.0000000000003126
 20
1158.0
 30
0.0
 11
135.0000000000003126
 21
1115.0
 31
0.0
  0
LINE
  5
1F5
  8
0
 10
135.0000000000003126
 20
1158.0
 30
0.0
 11
219.0000000000003126
 21
1158.0
 31
0.0
  0
LINE
  5
1F6
  8
0
 10
219.0000000000003126
 20
1158.0
 30
0.0
 11
219.0000000000003126
 21
1115.0
 31
0.0
  0
LINE
  5
1F7
  8
0
 10
219.0000000000003126
 20
1115.0
 30
0.0
 11
30.0000000000005684
 21
1115.0
 31
0.0
  0
LINE
  5
1F8
  8
0
 10
219.0000000000003126
 20
1115.0
 30
0.0
 11
280.0000000000002842
 21
1115.0
 31
0.0
  0
LINE
  5
1FA
  8
0
 10
219.0000000000003126
 20
1158.0
 30
0.0
 11
242.5000000000003126
 21
1158.0
 31
0.0
  0
LINE
  5
1FB
  8
0
 10
448.0000000000001137
 20
1367.0
 30
0.0
 11
448.0000000000001137
 21
1353.0
 31
0.0
  0
LINE
  5
1FC
  8
0
 10
448.0000000000001137
 20
1353.0
 30
0.0
 11
242.5000000000003126
 21
1158.0
 31
0.0
  0
LINE
  5
1FE
  8
0
 10
517.0
 20
1367.0
 30
0.0
 11
517.0
 21
1325.1074370604510477
 31
0.0
  0
LINE
  5
22E
  8
0
 10
367.0000000000002842
 20
1012.0
 30
0.0
 11
367.0000000000003979
 21
663.9999999999996589
 31
0.0
  0
LINE
  5
231
  8
0
 10
403.0000000000002842
 20
1043.9999999999990905
 30
0.0
 11
367.0000000000002842
 21
1012.0
 31
0.0
  0
LINE
  5
234
  8
0
 10
301.0000000000002842
 20
1138.0
 30
0.0
 11
280.0000000000002842
 21
1115.0
 31
0.0
  0
LINE
  5
235
  8
0
 10
301.0000000000002842
 20
1138.0
 30
0.0
 11
403.0000000000002842
 21
1043.9999999999990905
 31
0.0
  0
LINE
  5
236
  8
0
 10
301.0000000000002842
 20
1138.0
 30
0.0
 11
308.7212379572528107
 21
1130.8843493335120911
 31
0.0
  0
LINE
  5
238
  8
0
 10
308.7212379572528107
 20
1130.8843493335120911
 30
0.0
 11
331.393202707447017
 21
1152.0262984954499643
 31
0.0
  0
LINE
  5
239
  8
0
 10
403.0000000000002842
 20
1043.9999999999990905
 30
0.0
 11
386.8221680895666736
 21
1058.9089823488300226
 31
0.0
  0
LINE
  5
23B
  8
0
 10
386.8221680895666736
 20
1058.9089823488300226
 30
0.0
 11
409.49413283976088
 21
1080.0509315107678958
 31
0.0
  0
LINE
  5
23C
  8
0
 10
331.393202707447017
 20
1152.0262984954499643
 30
0.0
 11
409.49413283976088
 21
1080.0509315107678958
 31
0.0
  0
LINE
  5
23D
  8
0
 10
386.8221680895666736
 20
1058.9089823488300226
 30
0.0
 11
413.1509013478568022
 21
1083.4609233110809328
 31
0.0
  0
LINE
  5
251
  8
0
 10
413.1509013478568022
 20
1083.4609233110809328
 30
0.0
 11
422.6988783887318277
 21
1073.2219714884120094
 31
0.0
  0
LINE
  5
254
  8
0
 10
282.0000000000002842
 20
602.9999999999995453
 30
0.0
 11
367.0000000000003979
 21
663.9999999999996589
 31
0.0
  0
LINE
  5
256
  8
0
 10
282.0000000000002842
 20
602.9999999999995453
 30
0.0
 11
202.0000000000003979
 21
603.0000000000001137
 31
0.0
  0
LINE
  5
257
  8
0
 10
202.0000000000003979
 20
603.0000000000001137
 30
0.0
 11
106.0000000000002984
 21
603.0000000000003411
 31
0.0
  0
LINE
  5
258
  8
0
 10
106.0000000000002984
 20
603.0000000000003411
 30
0.0
 11
61.0000000000003411
 21
603.0000000000003411
 31
0.0
  0
LINE
  5
259
  8
0
 10
61.0000000000003411
 20
603.0000000000003411
 30
0.0
 11
61.0000000000003695
 21
678.0000000000003411
 31
0.0
  0
LINE
  5
25A
  8
0
 10
61.0000000000003695
 20
678.0000000000003411
 30
0.0
 11
30.0000000000003801
 21
678.0000000000004547
 31
0.0
  0
LINE
  5
25B
  8
0
 10
30.0000000000003801
 20
678.0000000000004547
 30
0.0
 11
30.0000000000005684
 21
1115.0
 31
0.0
  0
LINE
  5
25D
  8
0
 10
331.393202707447017
 20
1152.0262984954499643
 30
0.0
 11
517.0
 21
1325.1074370604510477
 31
0.0
  0
LINE
  5
25E
  8
0
 10
367.0000000000003979
 20
663.9999999999996589
 30
0.0
 11
354.0009628039289282
 21
654.6712791887013054
 31
0.0
  0
LINE
  5
260
  8
0
 10
282.0000000000002842
 20
602.9999999999995453
 30
0.0
 11
293.3741575465627989
 21
611.1626307098855477
 31
0.0
  0
LINE
  5
262
  8
0
 10
106.0000000000002984
 20
603.0000000000003411
 30
0.0
 11
106.0000000000004974
 21
560.0000000000003411
 31
0.0
  0
LINE
  5
263
  8
0
 10
106.0000000000004974
 20
560.0000000000003411
 30
0.0
 11
41.0000000000005187
 21
560.0000000000004547
 31
0.0
  0
LINE
  5
264
  8
0
 10
41.0000000000005187
 20
560.0000000000004547
 30
0.0
 11
41.0000000000006892
 21
498.0000000000005116
 31
0.0
  0
LINE
  5
265
  8
0
 10
41.0000000000006892
 20
498.0000000000005116
 30
0.0
 11
23.0000000000006892
 21
498.0000000000006253
 31
0.0
  0
LINE
  5
266
  8
0
 10
23.0000000000006892
 20
498.0000000000006253
 30
0.0
 11
23.00000000000054
 21
-54.9999999999993179
 31
0.0
  0
LINE
  5
267
  8
0
 10
23.00000000000054
 20
-54.9999999999993179
 30
0.0
 11
65.00000000000054
 21
-54.9999999999992681
 31
0.0
  0
LINE
  5
268
  8
0
 10
65.00000000000054
 20
-54.9999999999992681
 30
0.0
 11
65.0000000000005969
 21
-88.9999999999992468
 31
0.0
  0
LINE
  5
269
  8
0
 10
65.00000000000054
 20
-54.9999999999992681
 30
0.0
 11
275.0000000000006253
 21
-54.9999999999991331
 31
0.0
  0
LINE
  5
26B
  8
0
 10
275.0000000000006253
 20
-54.9999999999991331
 30
0.0
 11
326.0000000000006253
 21
-54.9999999999992966
 31
0.0
  0
LINE
  5
26C
  8
0
 10
326.0000000000006253
 20
-54.9999999999992966
 30
0.0
 11
326.0000000000005116
 21
-89.9999999999993037
 31
0.0
  0
LINE
  5
26D
  8
0
 10
326.0000000000006253
 20
-54.9999999999992966
 30
0.0
 11
433.0000000000005116
 21
-54.9999999999994884
 31
0.0
  0
LINE
  5
26E
  8
0
 10
433.0000000000005116
 20
-54.9999999999994884
 30
0.0
 11
433.0000000000006253
 21
-90.9999999999994884
 31
0.0
  0
LINE
  5
277
  8
0
 10
202.0000000000003979
 20
603.0000000000001137
 30
0.0
 11
202.0000000000003979
 21
560.0000000000001137
 31
0.0
  0
LINE
  5
278
  8
0
 10
202.0000000000003979
 20
560.0000000000001137
 30
0.0
 11
236.0000000000003126
 21
560.0000000000001137
 31
0.0
  0
LINE
  5
27A
  8
0
 10
236.0000000000003126
 20
560.0000000000001137
 30
0.0
 11
419.0000000000002274
 21
474.0000000000001137
 31
0.0
  0
LINE
  5
27D
  8
0
 10
419.0000000000002274
 20
474.0000000000001137
 30
0.0
 11
469.0000000000002274
 21
474.0000000000001137
 31
0.0
  0
LINE
  5
27E
  8
0
 10
469.0000000000002274
 20
474.0000000000001137
 30
0.0
 11
468.9999999999997158
 21
322.0000000000001137
 31
0.0
  0
LINE
  5
27F
  8
0
 10
468.9999999999997158
 20
322.0000000000001137
 30
0.0
 11
496.9999999999997158
 21
321.9999999999997726
 31
0.0
  0
LINE
  5
281
  8
0
 10
468.9999999999998863
 20
78.9999999999997726
 30
0.0
 11
468.9999999999996021
 21
-54.9999999999996021
 31
0.0
  0
LINE
  5
282
  8
0
 10
433.0000000000005116
 20
-54.9999999999994884
 30
0.0
 11
468.9999999999996021
 21
-54.9999999999996021
 31
0.0
  0
LINE
  5
29E
  8
0
 10
496.9999999999997158
 20
-51.0000000000002203
 30
0.0
 11
496.9999999999997158
 21
78.9999999999997726
 31
0.0
  0
LINE
  5
29F
  8
0
 10
496.9999999999997158
 20
473.9999999999997158
 30
0.0
 11
662.9999999999997726
 21
473.9999999999997158
 31
0.0
  0
LINE
  5
2A0
  8
0
 10
662.9999999999997726
 20
473.9999999999997158
 30
0.0
 11
746.9999999999996589
 21
473.9999999999997158
 31
0.0
  0
LINE
  5
2A1
  8
0
 10
746.9999999999996589
 20
473.9999999999997158
 30
0.0
 11
754.9999999999997726
 21
473.9999999999997158
 31
0.0
  0
LINE
  5
2A2
  8
0
 10
754.9999999999997726
 20
473.9999999999997158
 30
0.0
 11
754.9999999999997726
 21
446.9999999999997158
 31
0.0
  0
LINE
  5
2A3
  8
0
 10
754.9999999999997726
 20
446.9999999999997158
 30
0.0
 11
1089.0
 21
446.9999999999997158
 31
0.0
  0
LINE
  5
2A4
  8
0
 10
1089.0
 20
446.9999999999997158
 30
0.0
 11
1089.0
 21
152.999999999999801
 31
0.0
  0
LINE
  5
2A5
  8
0
 10
1089.0
 20
152.999999999999801
 30
0.0
 11
1062.9999999999990905
 21
152.999999999999801
 31
0.0
  0
LINE
  5
2A6
  8
0
 10
1062.9999999999990905
 20
152.999999999999801
 30
0.0
 11
1062.9999999999990905
 21
116.9999999999997016
 31
0.0
  0
LINE
  5
2A7
  8
0
 10
1062.9999999999990905
 20
116.9999999999997016
 30
0.0
 11
1089.0
 21
116.9999999999997016
 31
0.0
  0
LINE
  5
2A8
  8
0
 10
1089.0
 20
116.9999999999997016
 30
0.0
 11
1089.0
 21
-51.0000000000002203
 31
0.0
  0
LINE
  5
2A9
  8
0
 10
1089.0
 20
-51.0000000000002203
 30
0.0
 11
911.9999999999996589
 21
-51.0000000000002203
 31
0.0
  0
LINE
  5
2AB
  8
0
 10
911.9999999999996589
 20
-51.0000000000002203
 30
0.0
 11
911.9999999999996589
 21
-87.5000000000002274
 31
0.0
  0
LINE
  5
2AC
  8
0
 10
911.9999999999996589
 20
-51.0000000000002203
 30
0.0
 11
699.9999999999997726
 21
-51.0000000000002203
 31
0.0
  0
LINE
  5
2AD
  8
0
 10
699.9999999999997726
 20
-51.0000000000002203
 30
0.0
 11
699.9999999999997726
 21
-87.5000000000002274
 31
0.0
  0
LINE
  5
2AE
  8
0
 10
699.9999999999997726
 20
-51.0000000000002203
 30
0.0
 11
648.9999999999996589
 21
-51.0000000000002203
 31
0.0
  0
LINE
  5
2AF
  8
0
 10
648.9999999999996589
 20
-51.0000000000002203
 30
0.0
 11
648.9999999999996589
 21
-86.0000000000002132
 31
0.0
  0
LINE
  5
2B0
  8
0
 10
648.9999999999996589
 20
-51.0000000000002203
 30
0.0
 11
541.9999999999997726
 21
-51.0000000000002203
 31
0.0
  0
LINE
  5
2B1
  8
0
 10
541.9999999999997726
 20
-51.0000000000002203
 30
0.0
 11
541.9999999999997726
 21
-86.0000000000002132
 31
0.0
  0
LINE
  5
2B2
  8
0
 10
541.9999999999997726
 20
-51.0000000000002203
 30
0.0
 11
496.9999999999997158
 21
-51.0000000000002203
 31
0.0
  0
LINE
  5
2B5
  8
0
 10
496.9999999999997158
 20
78.9999999999997726
 30
0.0
 11
468.9999999999998863
 21
78.9999999999997726
 31
0.0
  0
LINE
  5
2D2
  8
0
 10
662.9999999999997726
 20
473.9999999999997158
 30
0.0
 11
662.9999999999997726
 21
516.9999999999997726
 31
0.0
  0
LINE
  5
2D4
  8
0
 10
746.9999999999996589
 20
473.9999999999997158
 30
0.0
 11
746.9999999999996589
 21
516.9999999999997726
 31
0.0
  0
LINE
  5
2D5
  8
0
 10
746.9999999999996589
 20
516.9999999999997726
 30
0.0
 11
787.9999999999997726
 21
516.9999999999997726
 31
0.0
  0
LINE
  5
2D6
  8
0
 10
787.9999999999997726
 20
516.9999999999997726
 30
0.0
 11
787.9999999999997726
 21
643.9999999999996589
 31
0.0
  0
LINE
  5
2D7
  8
0
 10
787.9999999999997726
 20
643.9999999999996589
 30
0.0
 11
744.9999999999996589
 21
643.9999999999996589
 31
0.0
  0
LINE
  5
2D8
  8
0
 10
744.9999999999996589
 20
643.9999999999996589
 30
0.0
 11
744.9999999999996589
 21
670.9999999999997726
 31
0.0
  0
LINE
  5
2D9
  8
0
 10
744.9999999999996589
 20
670.9999999999997726
 30
0.0
 11
660.9999999999996589
 21
670.9999999999997726
 31
0.0
  0
LINE
  5
2DA
  8
0
 10
661.0000000000001137
 20
670.9999999999995453
 30
0.0
 11
660.9999999999996589
 21
643.9999999999995453
 31
0.0
  0
LINE
  5
2EA
  8
0
 10
650.9999999999997726
 20
643.9999999999995453
 30
0.0
 11
650.9999999999997726
 21
516.9999999999997726
 31
0.0
  0
LINE
  5
2ED
  8
0
 10
650.9999999999997726
 20
545.9999999999997726
 30
0.0
 11
635.9999999999996589
 21
545.9999999999997726
 31
0.0
  0
LINE
  5
2EE
  8
0
 10
635.9999999999996589
 20
545.9999999999997726
 30
0.0
 11
635.9999999999996589
 21
516.9999999999997726
 31
0.0
  0
LINE
  5
2F2
  8
0
 10
389.0446548685962966
 20
642.9999999999996589
 30
0.0
 11
473.6376459695587187
 21
642.9999999999995453
 31
0.0
  0
LINE
  5
2F3
  8
0
 10
635.9999999999996589
 20
642.9999999999996589
 30
0.0
 11
635.9999999999996589
 21
615.9999999999996589
 31
0.0
  0
LINE
  5
2F4
  8
0
 10
635.9999999999996589
 20
615.9999999999996589
 30
0.0
 11
650.9999999999997726
 21
615.9999999999996589
 31
0.0
  0
LINE
  5
2F5
  8
0
 10
650.9999999999997726
 20
643.9999999999995453
 30
0.0
 11
660.9999999999996589
 21
643.9999999999995453
 31
0.0
  0
LINE
  5
2F6
  8
0
 10
635.9999999999996589
 20
615.9999999999996589
 30
0.0
 11
635.9999999999996589
 21
545.9999999999997726
 31
0.0
  0
LINE
  5
2F7
  8
0
 10
660.9999999999996589
 20
643.9999999999995453
 30
0.0
 11
744.9999999999996589
 21
643.9999999999996589
 31
0.0
  0
LINE
  5
2F8
  8
0
 10
662.9999999999997726
 20
516.9999999999997726
 30
0.0
 11
650.9999999999996589
 21
516.9999999999997726
 31
0.0
  0
LINE
  5
2F9
  8
0
 10
635.9999999999996589
 20
516.9999999999997726
 30
0.0
 11
486.0000000000002274
 21
516.9999999999997726
 31
0.0
  0
LINE
  5
2FC
  8
0
 10
486.0000000000001137
 20
516.9999999999997726
 30
0.0
 11
486.0
 21
642.9999999999996589
 31
0.0
  0
LINE
  5
2FE
  8
0
 10
486.0000000000001137
 20
806.9999999999997726
 30
0.0
 11
486.0000000000001137
 21
865.9999999999997726
 31
0.0
  0
LINE
  5
300
  8
0
 10
486.0000000000001137
 20
865.9999999999997726
 30
0.0
 11
471.0
 21
865.9999999999997726
 31
0.0
  0
LINE
  5
301
  8
0
 10
471.0
 20
865.9999999999997726
 30
0.0
 11
471.0
 21
806.9999999999997726
 31
0.0
  0
LINE
  5
302
  8
0
 10
471.0
 20
806.9999999999997726
 30
0.0
 11
486.0000000000001137
 21
806.9999999999997726
 31
0.0
  0
LINE
  5
303
  8
0
 10
471.0
 20
806.9999999999997726
 30
0.0
 11
471.0
 21
785.9999999999996589
 31
0.0
  0
LINE
  5
304
  8
0
 10
471.0
 20
785.9999999999996589
 30
0.0
 11
395.0000000000001137
 21
785.9999999999996589
 31
0.0
  0
LINE
  5
305
  8
0
 10
395.0000000000002274
 20
670.9999999999995453
 30
0.0
 11
395.0000000000001137
 21
760.4999999999995453
 31
0.0
  0
LINE
  5
308
  8
0
 10
471.0
 20
1066.0
 30
0.0
 11
471.0
 21
1020.0
 31
0.0
  0
LINE
  5
309
  8
0
 10
471.0
 20
1020.0
 30
0.0
 11
395.0
 21
946.9999999999996589
 31
0.0
  0
LINE
  5
30C
  8
0
 10
432.0553261897085235
 20
1026.5926159453770197
 30
0.0
 11
471.0
 21
1066.0
 31
0.0
  0
LINE
  5
329
  8
0
 10
662.9999999999997726
 20
516.9999999999997726
 30
0.0
 11
746.9999999999996589
 21
516.9999999999997726
 31
0.0
  0
LINE
  5
32B
  8
0
 10
744.9999999999996589
 20
670.9999999999997726
 30
0.0
 11
760.9999999999996589
 21
670.9999999999997726
 31
0.0
  0
LINE
  5
32C
  8
0
 10
760.9999999999996589
 20
670.9999999999997726
 30
0.0
 11
760.9999999999996589
 21
782.9999999999997726
 31
0.0
  0
LINE
  5
32D
  8
0
 10
760.9999999999996589
 20
782.9999999999997726
 30
0.0
 11
792.9999999999996589
 21
782.9999999999997726
 31
0.0
  0
LINE
  5
32E
  8
0
 10
792.9999999999996589
 20
782.9999999999997726
 30
0.0
 11
792.9999999999996589
 21
1092.0
 31
0.0
  0
LINE
  5
32F
  8
0
 10
792.9999999999996589
 20
1092.0
 30
0.0
 11
714.4999999999996589
 21
1092.0
 31
0.0
  0
LINE
  5
330
  8
0
 10
714.4999999999996589
 20
1092.0
 30
0.0
 11
714.4999999999996589
 21
1132.5
 31
0.0
  0
LINE
  5
331
  8
0
 10
714.4999999999996589
 20
1132.5
 30
0.0
 11
714.4999999999996589
 21
1133.4999999999990905
 31
0.0
  0
LINE
  5
334
  8
0
 10
714.4999999999996589
 20
1133.4999999999990905
 30
0.0
 11
590.4999999999996589
 21
1133.4999999999990905
 31
0.0
  0
LINE
  5
335
  8
0
 10
590.4999999999996589
 20
1133.4999999999990905
 30
0.0
 11
590.4999999999996589
 21
1092.0
 31
0.0
  0
LINE
  5
336
  8
0
 10
590.4999999999996589
 20
1092.0
 30
0.0
 11
550.4999999999997726
 21
1092.0
 31
0.0
  0
LINE
  5
337
  8
0
 10
486.0000000000001137
 20
865.9999999999997726
 30
0.0
 11
486.0000000000001137
 21
1040.0
 31
0.0
  0
LINE
  5
338
  8
0
 10
486.0000000000001137
 20
1040.0
 30
0.0
 11
550.4999999999997726
 21
1092.0
 31
0.0
  0
LINE
  5
339
  8
0
 10
590.4999999999996589
 20
1092.0
 30
0.0
 11
714.4999999999996589
 21
1092.0
 31
0.0
  0
LINE
  5
348
  8
0
 10
590.4999999999996589
 20
1133.4999999999990905
 30
0.0
 11
595.4953569352957174
 21
1133.7154276885410127
 31
0.0
  0
LINE
  5
349
  8
0
 10
595.4953569352957174
 20
1133.7154276885410127
 30
0.0
 11
595.4953569352957174
 21
1159.7154276885410127
 31
0.0
  0
LINE
  5
34A
  8
0
 10
595.4953569352957174
 20
1159.7154276885410127
 30
0.0
 11
521.4953569352957174
 21
1159.7154276885410127
 31
0.0
  0
LINE
  5
34B
  8
0
 10
521.4953569352957174
 20
1159.7154276885410127
 30
0.0
 11
422.6988783887318277
 21
1073.2219714884120094
 31
0.0
  0
LINE
  5
34D
  8
0
 10
710.4999999999996589
 20
1133.4999999999990905
 30
0.0
 11
710.4999999999996589
 21
1159.7154276885410127
 31
0.0
  0
LINE
  5
34E
  8
0
 10
710.4999999999996589
 20
1159.7154276885410127
 30
0.0
 11
1131.0
 21
1159.7154276885410127
 31
0.0
  0
LINE
  5
34F
  8
0
 10
595.4953569352957174
 20
1159.7154276885410127
 30
0.0
 11
710.4999999999996589
 21
1159.7154276885410127
 31
0.0
  0
LINE
  5
36C
  8
0
 10
293.3741575465627989
 20
611.1626307098855477
 30
0.0
 11
301.6031510786575041
 21
599.8363927886364309
 31
0.0
  0
LINE
  5
36D
  8
0
 10
301.6031510786575041
 20
599.8363927886364309
 30
0.0
 11
289.1675874903319254
 21
591.4484992365752305
 31
0.0
  0
LINE
  5
36E
  8
0
 10
289.1675874903319254
 20
591.4484992365752305
 30
0.0
 11
298.5721515270113855
 21
578.5042273265760286
 31
0.0
  0
LINE
  5
36F
  8
0
 10
354.0009628039289282
 20
654.6712791887013054
 30
0.0
 11
362.2299563360235197
 21
643.3450412674519612
 31
0.0
  0
LINE
  5
370
  8
0
 10
362.2299563360235197
 20
643.3450412674519612
 30
0.0
 11
375.9832452403977072
 21
653.3373905564241113
 31
0.0
  0
LINE
  5
371
  8
0
 10
375.9832452403977072
 20
653.3373905564241113
 30
0.0
 11
385.3878092770772241
 21
640.3931186464249095
 31
0.0
  0
LINE
  5
372
  8
0
 10
389.0446548685962966
 20
642.9999999999996589
 30
0.0
 11
296.1293246362811828
 21
576.7627920616511119
 31
0.0
  0
LINE
  5
373
  8
0
 10
296.1293246362811828
 20
576.7627920616511119
 30
0.0
 11
424.2910458014661117
 21
516.9999999999997726
 31
0.0
  0
LINE
  5
375
  8
0
 10
473.6376459695587187
 20
516.9999999999997726
 30
0.0
 11
473.637645969558605
 21
642.9999999999994316
 31
0.0
  0
LINE
  5
377
  8
0
 10
473.6376459695587755
 20
516.9999999999997726
 30
0.0
 11
424.2910458014661117
 21
516.9999999999997726
 31
0.0
  0
LINE
  5
378
  8
0
 10
486.0000000000002274
 20
642.9999999999995453
 30
0.0
 11
635.9999999999996589
 21
642.9999999999996589
 31
0.0
  0
LINE
  5
379
  8
0
 10
486.0
 20
670.9999999999995453
 30
0.0
 11
486.0000000000001137
 21
806.9999999999997726
 31
0.0
  0
LINE
  5
381
  8
0
 10
473.6376459695587187
 20
642.9999999999995453
 30
0.0
 11
463.6376459695587187
 21
642.9999999999995453
 31
0.0
  0
LINE
  5
382
  8
0
 10
463.6376459695587187
 20
642.9999999999995453
 30
0.0
 11
463.6376459695587187
 21
670.9999999999995453
 31
0.0
  0
LINE
  5
384
  8
0
 10
473.6376459695587755
 20
674.9999999999995453
 30
0.0
 11
473.6376459695587755
 21
760.4999999999995453
 31
0.0
  0
LINE
  5
385
  8
0
 10
473.6376459695587755
 20
760.4999999999995453
 30
0.0
 11
395.0000000000001137
 21
760.4999999999994316
 31
0.0
  0
LINE
  5
388
  8
0
 10
409.6376459695587187
 20
670.9999999999995453
 30
0.0
 11
409.6376459695587187
 21
642.9999999999996589
 31
0.0
  0
LINE
  5
392
  8
0
 10
473.637645969558605
 20
670.9999999999995453
 30
0.0
 11
473.6376459695587755
 21
760.4999999999995453
 31
0.0
  0
LINE
  5
393
  8
0
 10
301.6031510786575041
 20
599.8363927886364309
 30
0.0
 11
362.2299563360235197
 21
643.3450412674519612
 31
0.0
  0
LINE
  5
39B
  8
0
 10
395.0000000000001137
 20
785.9999999999996589
 30
0.0
 11
395.0000000000001137
 21
946.9999999999996589
 31
0.0
  0
LINE
  5
39C
  8
0
 10
395.0000000000002274
 20
670.9999999999995453
 30
0.0
 11
473.637645969558605
 21
670.9999999999995453
 31
0.0
  0
LINE
  5
39D
  8
0
 10
486.0
 20
670.9999999999995453
 30
0.0
 11
660.9999999999996589
 21
670.9999999999995453
 31
0.0
  0
LINE
  5
3A5
  8
0
 10
30.0000000000005898
 20
1158.0
 30
0.0
 11
30.0000000000006999
 21
1408.0
 31
0.0
  0
LINE
  5
3AD
  8
0
 10
496.9999999999997158
 20
321.9999999999997726
 30
0.0
 11
496.9999999999997158
 21
473.9999999999997158
 31
0.0
  0
LINE
  5
3BC
  8
0
 10
471.0
 20
1020.0
 30
0.0
 11
432.0553261897085235
 21
982.5926159453777018
 31
0.0
  0
LINE
  5
3BD
  8
0
 10
432.0553261897085235
 20
982.5926159453777018
 30
0.0
 11
432.0553261897085235
 21
1026.5926159453770197
 31
0.0
  0
LINE
  5
3BE
  8
0
 10
471.0
 20
865.9999999999997726
 30
0.0
 11
471.0
 21
1020.0
 31
0.0
  0
LINE
  5
3C6
  8
0
 10
106.0000000000004974
 20
560.0000000000003411
 30
0.0
 11
202.0000000000003979
 21
560.0000000000001137
 31
0.0
  0
LINE
  5
3CF
  8
0
 10
326.0000000000005116
 20
-89.9999999999993037
 30
0.0
 11
332.0000000000005116
 21
-89.9999999999993037
 31
0.0
  0
LINE
  5
3D0
  8
0
 10
332.0000000000005116
 20
-89.9999999999993037
 30
0.0
 11
332.0000000000005116
 21
-121.9999999999993037
 31
0.0
  0
LINE
  5
3D1
  8
0
 10
332.0000000000005116
 20
-121.9999999999993037
 30
0.0
 11
268.0000000000005116
 21
-121.9999999999993037
 31
0.0
  0
LINE
  5
3D2
  8
0
 10
268.0000000000005116
 20
-121.9999999999993037
 30
0.0
 11
268.0000000000005116
 21
-88.9999999999992468
 31
0.0
  0
LINE
  5
3D3
  8
0
 10
268.0000000000005116
 20
-97.9999999999993037
 30
0.0
 11
72.00000000000054
 21
-97.9999999999993037
 31
0.0
  0
LINE
  5
3D4
  8
0
 10
72.00000000000054
 20
-88.9999999999992468
 30
0.0
 11
72.00000000000054
 21
-121.9999999999993037
 31
0.0
  0
LINE
  5
3D5
  8
0
 10
72.00000000000054
 20
-121.9999999999993037
 30
0.0
 11
-8.9999999999994582
 21
-121.9999999999993037
 31
0.0
  0
LINE
  5
3D6
  8
0
 10
-8.9999999999994582
 20
-121.9999999999993037
 30
0.0
 11
-8.9999999999994582
 21
1544.0
 31
0.0
  0
LINE
  5
3D7
  8
0
 10
65.0000000000005969
 20
-88.9999999999992468
 30
0.0
 11
275.0000000000006821
 21
-88.9999999999992468
 31
0.0
  0
LINE
  5
3D8
  8
0
 10
275.0000000000006821
 20
-88.9999999999992468
 30
0.0
 11
275.0000000000006253
 21
-54.9999999999991331
 31
0.0
  0
LINE
  5
3E0
  8
0
 10
433.0000000000006253
 20
-90.9999999999994884
 30
0.0
 11
430.0000000000006253
 21
-90.9999999999994884
 31
0.0
  0
LINE
  5
3E1
  8
0
 10
430.0000000000006253
 20
-90.9999999999994884
 30
0.0
 11
430.0000000000006253
 21
-122.9999999999995026
 31
0.0
  0
LINE
  5
3E6
  8
0
 10
430.0000000000006253
 20
-122.9999999999995026
 30
0.0
 11
545.0000000000006821
 21
-122.9999999999995026
 31
0.0
  0
LINE
  5
3E7
  8
0
 10
545.0000000000006821
 20
-122.9999999999995026
 30
0.0
 11
545.0000000000006821
 21
-86.0000000000002558
 31
0.0
  0
LINE
  5
3E8
  8
0
 10
545.0000000000006821
 20
-86.0000000000002558
 30
0.0
 11
541.9999999999997726
 21
-86.0000000000002132
 31
0.0
  0
LINE
  5
3E9
  8
0
 10
648.9999999999996589
 20
-86.0000000000002132
 30
0.0
 11
644.9999999999996589
 21
-86.0000000000002132
 31
0.0
  0
LINE
  5
3EA
  8
0
 10
644.9999999999996589
 20
-86.0000000000002132
 30
0.0
 11
644.9999999999996589
 21
-122.9999999999995026
 31
0.0
  0
LINE
  5
3EB
  8
0
 10
644.9999999999996589
 20
-122.9999999999995026
 30
0.0
 11
707.9999999999997726
 21
-122.9999999999995026
 31
0.0
  0
LINE
  5
3EC
  8
0
 10
707.9999999999997726
 20
-122.9999999999995026
 30
0.0
 11
707.9999999999997726
 21
-87.5000000000002274
 31
0.0
  0
LINE
  5
3ED
  8
0
 10
707.9999999999997726
 20
-98.9999999999994742
 30
0.0
 11
904.9999999999996589
 21
-98.9999999999994742
 31
0.0
  0
LINE
  5
3EE
  8
0
 10
904.9999999999996589
 20
-87.5000000000002274
 30
0.0
 11
904.9999999999996589
 21
-122.9999999999994031
 31
0.0
  0
LINE
  5
3EF
  8
0
 10
904.9999999999996589
 20
-122.9999999999994031
 30
0.0
 11
1131.0
 21
-122.9999999999994031
 31
0.0
  0
LINE
  5
3F0
  8
0
 10
1131.0
 20
-122.9999999999994031
 30
0.0
 11
1131.0
 21
1159.7154276885410127
 31
0.0
  0
LINE
  5
3F2
  8
0
 10
332.0000000000005116
 20
-121.9999999999993037
 30
0.0
 11
430.0000000000006253
 21
-122.9999999999995026
 31
0.0
  0
LINE
  5
3FE
  8
0
 10
545.0000000000006821
 20
-122.9999999999995026
 30
0.0
 11
644.9999999999996589
 21
-122.9999999999995026
 31
0.0
  0
LINE
  5
3FF
  8
0
 10
699.9999999999997726
 20
-87.5000000000002274
 30
0.0
 11
911.9999999999996589
 21
-87.5000000000002274
 31
0.0
  0
LINE
  5
40E
  8
0
 10
517.0
 20
1477.0
 30
0.0
 11
517.0
 21
1544.0
 31
0.0
  0
LINE
  5
40F
  8
0
 10
517.0
 20
1544.0
 30
0.0
 11
-8.9999999999994582
 21
1544.0
 31
0.0
  0
LINE
  5
41F
  8
0
 10
490.5000000000001137
 20
1367.0
 30
0.0
 11
490.5000000000001137
 21
1477.0
 31
0.0
  0
LINE
  5
420
  8
0
 10
490.5000000000002274
 20
1367.0
 30
0.0
 11
490.5000000000002274
 21
1374.0
 31
0.0
  0
LINE
  5
421
  8
0
 10
490.5000000000002274
 20
1374.0
 30
0.0
 11
517.0
 21
1374.0
 31
0.0
  0
LINE
  5
422
  8
0
 10
490.5000000000001137
 20
1477.0
 30
0.0
 11
490.5000000000001137
 21
1469.0
 31
0.0
  0
LINE
  5
423
  8
0
 10
490.5000000000001137
 20
1469.0
 30
0.0
 11
517.0
 21
1469.0
 31
0.0
  0
POLYLINE
  5
452
  8
ROOMS
 62
     1
 66
     1
 10
0.0
 20
0.0
 30
0.0
  0
VERTEX
  5
6E5
  8
ROOMS
 62
     1
 10
242.5000000000003126
 20
1158.0
 30
0.0
  0
VERTEX
  5
6E6
  8
ROOMS
 62
     1
 10
448.0000000000001137
 20
1353.0
 30
0.0
  0
VERTEX
  5
6E7
  8
ROOMS
 62
     1
 10
448.0000000000001137
 20
1367.0
 30
0.0
  0
VERTEX
  5
6E8
  8
ROOMS
 62
     1
 10
463.0000000000001137
 20
1367.0
 30
0.0
  0
VERTEX
  5
6E9
  8
ROOMS
 62
     1
 10
463.0000000000001137
 20
1477.0
 30
0.0
  0
VERTEX
  5
6EA
  8
ROOMS
 62
     1
 10
60.0000000000001066
 20
1477.0
 30
0.0
  0
VERTEX
  5
6EB
  8
ROOMS
 62
     1
 10
60.0000000000001634
 20
1408.0
 30
0.0
  0
VERTEX
  5
6EC
  8
ROOMS
 62
     1
 10
30.0000000000006999
 20
1408.0
 30
0.0
  0
VERTEX
  5
6ED
  8
ROOMS
 62
     1
 10
30.0000000000005898
 20
1158.0
 30
0.0
  0
VERTEX
  5
6EE
  8
ROOMS
 62
     1
 10
242.5000000000003126
 20
1158.0
 30
0.0
  0
SEQEND
  5
6EF
  8
ROOMS
 62
     1
  0
POLYLINE
  5
460
  8
ROOMS
 62
     1
 66
     1
 10
0.0
 20
0.0
 30
0.0
  0
VERTEX
  5
6F0
  8
ROOMS
 62
     1
 10
30.0000000000005684
 20
1115.0
 30
0.0
  0
VERTEX
  5
6F1
  8
ROOMS
 62
     1
 10
280.0000000000002842
 20
1115.0
 30
0.0
  0
VERTEX
  5
6F2
  8
ROOMS
 62
     1
 10
301.0000000000002842
 20
1138.0
 30
0.0
  0
VERTEX
  5
6F3
  8
ROOMS
 62
     1
 10
403.0000000000010232
 20
1044.0
 30
0.0
  0
VERTEX
  5
6F4
  8
ROOMS
 62
     1
 10
367.0000000000002842
 20
1012.0
 30
0.0
  0
VERTEX
  5
6F5
  8
ROOMS
 62
     1
 10
367.0000000000002274
 20
678.7865343843650408
 30
0.0
  0
VERTEX
  5
6F6
  8
ROOMS
 62
     1
 10
367.0000000000002842
 20
663.9999999999996589
 30
0.0
  0
VERTEX
  5
6F7
  8
ROOMS
 62
     1
 10
282.0000000000002842
 20
602.9999999999995453
 30
0.0
  0
VERTEX
  5
6F8
  8
ROOMS
 62
     1
 10
61.0000000000003411
 20
602.9999999999998863
 30
0.0
  0
VERTEX
  5
6F9
  8
ROOMS
 62
     1
 10
61.0000000000004476
 20
678.0000000000004547
 30
0.0
  0
VERTEX
  5
6FA
  8
ROOMS
 62
     1
 10
30.0000000000003801
 20
678.0000000000006821
 30
0.0
  0
VERTEX
  5
6FB
  8
ROOMS
 62
     1
 10
30.0000000000005684
 20
1115.0
 30
0.0
  0
SEQEND
  5
6FC
  8
ROOMS
 62
     1
  0
POLYLINE
  5
468
  8
ROOMS
 62
     1
 66
     1
 10
0.0
 20
0.0
 30
0.0
  0
VERTEX
  5
6FD
  8
ROOMS
 62
     1
 10
41.0000000000005187
 20
560.0000000000004547
 30
0.0
  0
VERTEX
  5
6FE
  8
ROOMS
 62
     1
 10
41.0000000000006892
 20
498.0000000000005116
 30
0.0
  0
VERTEX
  5
6FF
  8
ROOMS
 62
     1
 10
23.0000000000006892
 20
498.0000000000002274
 30
0.0
  0
VERTEX
  5
700
  8
ROOMS
 62
     1
 10
23.0000000000011511
 20
-54.9999999999993179
 30
0.0
  0
VERTEX
  5
701
  8
ROOMS
 62
     1
 10
65.00000000000054
 20
-54.9999999999992681
 30
0.0
  0
VERTEX
  5
702
  8
ROOMS
 62
     1
 10
468.9999999999997158
 20
-54.9999999999987921
 30
0.0
  0
VERTEX
  5
703
  8
ROOMS
 62
     1
 10
468.9999999999998863
 20
78.9999999999997726
 30
0.0
  0
VERTEX
  5
704
  8
ROOMS
 62
     1
 10
496.9999999999997158
 20
78.9999999999997726
 30
0.0
  0
VERTEX
  5
705
  8
ROOMS
 62
     1
 10
496.9999999999997158
 20
-51.0000000000002203
 30
0.0
  0
VERTEX
  5
706
  8
ROOMS
 62
     1
 10
1089.0
 20
-51.0000000000001208
 30
0.0
  0
VERTEX
  5
707
  8
ROOMS
 62
     1
 10
1089.0
 20
116.9999999999997016
 30
0.0
  0
VERTEX
  5
708
  8
ROOMS
 62
     1
 10
1062.9999999999990905
 20
116.9999999999997016
 30
0.0
  0
VERTEX
  5
709
  8
ROOMS
 62
     1
 10
1062.9999999999990905
 20
152.999999999999801
 30
0.0
  0
VERTEX
  5
70A
  8
ROOMS
 62
     1
 10
1089.0
 20
152.999999999999801
 30
0.0
  0
VERTEX
  5
70B
  8
ROOMS
 62
     1
 10
1089.0
 20
446.9999999999997158
 30
0.0
  0
VERTEX
  5
70C
  8
ROOMS
 62
     1
 10
754.9999999999997726
 20
446.9999999999997158
 30
0.0
  0
VERTEX
  5
70D
  8
ROOMS
 62
     1
 10
754.9999999999997726
 20
473.9999999999997158
 30
0.0
  0
VERTEX
  5
70E
  8
ROOMS
 62
     1
 10
496.9999999999997158
 20
474.0000000000001137
 30
0.0
  0
VERTEX
  5
70F
  8
ROOMS
 62
     1
 10
496.9999999999997158
 20
321.9999999999997726
 30
0.0
  0
VERTEX
  5
710
  8
ROOMS
 62
     1
 10
468.9999999999997158
 20
321.9999999999997726
 30
0.0
  0
VERTEX
  5
711
  8
ROOMS
 62
     1
 10
468.9999999999996021
 20
474.0000000000001137
 30
0.0
  0
VERTEX
  5
712
  8
ROOMS
 62
     1
 10
419.0000000000002274
 20
474.0000000000001137
 30
0.0
  0
VERTEX
  5
713
  8
ROOMS
 62
     1
 10
236.0000000000003126
 20
560.0000000000001137
 30
0.0
  0
VERTEX
  5
714
  8
ROOMS
 62
     1
 10
41.0000000000005187
 20
560.0000000000004547
 30
0.0
  0
SEQEND
  5
715
  8
ROOMS
 62
     1
  0
POLYLINE
  5
469
  8
ROOMS
 62
     1
 66
     1
 10
0.0
 20
0.0
 30
0.0
  0
VERTEX
  5
716
  8
ROOMS
 62
     1
 10
486.0000000000002274
 20
642.9999999999995453
 30
0.0
  0
VERTEX
  5
717
  8
ROOMS
 62
     1
 10
486.0000000000002274
 20
516.9999999999997726
 30
0.0
  0
VERTEX
  5
718
  8
ROOMS
 62
     1
 10
635.9999999999996589
 20
516.9999999999997726
 30
0.0
  0
VERTEX
  5
719
  8
ROOMS
 62
     1
 10
635.9999999999995453
 20
642.9999999999996589
 30
0.0
  0
VERTEX
  5
71A
  8
ROOMS
 62
     1
 10
486.0
 20
642.9999999999995453
 30
0.0
  0
SEQEND
  5
71B
  8
ROOMS
 62
     1
  0
POLYLINE
  5
46A
  8
ROOMS
 62
     1
 66
     1
 10
0.0
 20
0.0
 30
0.0
  0
VERTEX
  5
71C
  8
ROOMS
 62
     1
 10
650.9999999999997726
 20
643.9999999999995453
 30
0.0
  0
VERTEX
  5
71D
  8
ROOMS
 62
     1
 10
650.9999999999997726
 20
516.9999999999997726
 30
0.0
  0
VERTEX
  5
71E
  8
ROOMS
 62
     1
 10
787.9999999999997726
 20
516.9999999999997726
 30
0.0
  0
VERTEX
  5
71F
  8
ROOMS
 62
     1
 10
787.9999999999997726
 20
643.9999999999996589
 30
0.0
  0
VERTEX
  5
720
  8
ROOMS
 62
     1
 10
650.9999999999997726
 20
643.9999999999995453
 30
0.0
  0
SEQEND
  5
721
  8
ROOMS
 62
     1
  0
POLYLINE
  5
46B
  8
ROOMS
 62
     1
 66
     1
 10
0.0
 20
0.0
 30
0.0
  0
VERTEX
  5
722
  8
ROOMS
 62
     1
 10
389.0446548685962966
 20
642.9999999999996589
 30
0.0
  0
VERTEX
  5
723
  8
ROOMS
 62
     1
 10
296.1293246362811828
 20
576.7627920616511119
 30
0.0
  0
VERTEX
  5
724
  8
ROOMS
 62
     1
 10
424.2910458014661117
 20
516.9999999999997726
 30
0.0
  0
VERTEX
  5
725
  8
ROOMS
 62
     1
 10
473.6376459695587755
 20
516.9999999999997726
 30
0.0
  0
VERTEX
  5
726
  8
ROOMS
 62
     1
 10
473.637645969558605
 20
642.9999999999995453
 30
0.0
  0
VERTEX
  5
727
  8
ROOMS
 62
     1
 10
389.0446548685962966
 20
642.9999999999996589
 30
0.0
  0
VERTEX
  5
728
  8
ROOMS
 62
     1
 10
298.5721515270114992
 20
578.5042273265760286
 30
0.0
  0
SEQEND
  5
729
  8
ROOMS
 62
     1
  0
POLYLINE
  5
46C
  8
ROOMS
 62
     1
 66
     1
 10
0.0
 20
0.0
 30
0.0
  0
VERTEX
  5
72A
  8
ROOMS
 62
     1
 10
395.0000000000001137
 20
760.4999999999994316
 30
0.0
  0
VERTEX
  5
72B
  8
ROOMS
 62
     1
 10
395.0000000000002274
 20
670.9999999999995453
 30
0.0
  0
VERTEX
  5
72C
  8
ROOMS
 62
     1
 10
473.637645969558605
 20
670.9999999999995453
 30
0.0
  0
VERTEX
  5
72D
  8
ROOMS
 62
     1
 10
473.637645969558605
 20
760.4999999999994316
 30
0.0
  0
VERTEX
  5
72E
  8
ROOMS
 62
     1
 10
395.0000000000001137
 20
760.4999999999994316
 30
0.0
  0
SEQEND
  5
72F
  8
ROOMS
 62
     1
  0
POLYLINE
  5
46E
  8
ROOMS
 62
     1
 66
     1
 10
0.0
 20
0.0
 30
0.0
  0
VERTEX
  5
730
  8
ROOMS
 62
     1
 10
486.0000000000001137
 20
1040.0
 30
0.0
  0
VERTEX
  5
731
  8
ROOMS
 62
     1
 10
486.0
 20
670.9999999999995453
 30
0.0
  0
VERTEX
  5
732
  8
ROOMS
 62
     1
 10
760.9999999999996589
 20
670.9999999999995453
 30
0.0
  0
VERTEX
  5
733
  8
ROOMS
 62
     1
 10
760.9999999999996589
 20
782.9999999999997726
 30
0.0
  0
VERTEX
  5
734
  8
ROOMS
 62
     1
 10
792.9999999999996589
 20
782.9999999999997726
 30
0.0
  0
VERTEX
  5
735
  8
ROOMS
 62
     1
 10
792.9999999999996589
 20
1092.0
 30
0.0
  0
VERTEX
  5
736
  8
ROOMS
 62
     1
 10
550.4999999999997726
 20
1092.0
 30
0.0
  0
VERTEX
  5
737
  8
ROOMS
 62
     1
 10
486.0000000000001137
 20
1040.0
 30
0.0
  0
SEQEND
  5
738
  8
ROOMS
 62
     1
  0
POLYLINE
  5
484
  8
OUTLINE
 62
     6
 66
     1
 10
0.0
 20
0.0
 30
0.0
  0
VERTEX
  5
739
  8
OUTLINE
 62
     6
 10
-8.9999999999994316
 20
1544.0
 30
0.0
  0
VERTEX
  5
73A
  8
OUTLINE
 62
     6
 10
-8.9999999999994582
 20
-121.9999999999993037
 30
0.0
  0
VERTEX
  5
73B
  8
OUTLINE
 62
     6
 10
72.00000000000054
 20
-121.9999999999995026
 30
0.0
  0
VERTEX
  5
73C
  8
OUTLINE
 62
     6
 10
72.00000000000054
 20
-97.9999999999993037
 30
0.0
  0
VERTEX
  5
73D
  8
OUTLINE
 62
     6
 10
268.0000000000005116
 20
-97.9999999999993037
 30
0.0
  0
VERTEX
  5
73E
  8
OUTLINE
 62
     6
 10
268.0000000000006253
 20
-121.9999999999993037
 30
0.0
  0
VERTEX
  5
73F
  8
OUTLINE
 62
     6
 10
332.0000000000005116
 20
-121.9999999999993037
 30
0.0
  0
VERTEX
  5
740
  8
OUTLINE
 62
     6
 10
430.0000000000006253
 20
-121.9999999999993037
 30
0.0
  0
VERTEX
  5
741
  8
OUTLINE
 62
     6
 10
545.0000000000003411
 20
-121.9999999999991047
 30
0.0
  0
VERTEX
  5
742
  8
OUTLINE
 62
     6
 10
644.9999999999996589
 20
-121.9999999999989058
 30
0.0
  0
VERTEX
  5
743
  8
OUTLINE
 62
     6
 10
707.9999999999997726
 20
-121.9999999999988063
 30
0.0
  0
VERTEX
  5
744
  8
OUTLINE
 62
     6
 10
707.9999999999997726
 20
-98.9999999999994742
 30
0.0
  0
VERTEX
  5
745
  8
OUTLINE
 62
     6
 10
904.9999999999996589
 20
-98.9999999999994742
 30
0.0
  0
VERTEX
  5
746
  8
OUTLINE
 62
     6
 10
905.0000000000004547
 20
-122.9999999999994031
 30
0.0
  0
VERTEX
  5
747
  8
OUTLINE
 62
     6
 10
1131.0
 20
-122.9999999999994031
 30
0.0
  0
VERTEX
  5
748
  8
OUTLINE
 62
     6
 10
1131.0
 20
1159.7154276885410127
 30
0.0
  0
VERTEX
  5
749
  8
OUTLINE
 62
     6
 10
521.4953569352957174
 20
1159.7154276885410127
 30
0.0
  0
VERTEX
  5
74A
  8
OUTLINE
 62
     6
 10
422.6988783887318277
 20
1073.2219714884120094
 30
0.0
  0
VERTEX
  5
74B
  8
OUTLINE
 62
     6
 10
413.1509013478568022
 20
1083.4609233110809328
 30
0.0
  0
VERTEX
  5
74C
  8
OUTLINE
 62
     6
 10
409.49413283976088
 20
1080.0509315107678958
 30
0.0
  0
VERTEX
  5
74D
  8
OUTLINE
 62
     6
 10
331.393202707447017
 20
1152.0262984954499643
 30
0.0
  0
VERTEX
  5
74E
  8
OUTLINE
 62
     6
 10
517.0
 20
1325.1074370604510477
 30
0.0
  0
VERTEX
  5
74F
  8
OUTLINE
 62
     6
 10
517.0
 20
1544.0
 30
0.0
  0
VERTEX
  5
750
  8
OUTLINE
 62
     6
 10
-8.9999999999994582
 20
1544.0
 30
0.0
  0
SEQEND
  5
751
  8
OUTLINE
 62
     6
  0
POLYLINE
  5
493
  8
DOORS
 66
     1
 10
0.0
 20
0.0
 30
0.0
  0
VERTEX
  5
752
  8
DOORS
 10
135.0000000000003126
 20
1158.0
 30
0.0
  0
VERTEX
  5
753
  8
DOORS
 10
135.0000000000003126
 20
1115.0
 30
0.0
  0
VERTEX
  5
754
  8
DOORS
 10
219.0000000000003126
 20
1115.0
 30
0.0
  0
VERTEX
  5
755
  8
DOORS
 10
219.0000000000003126
 20
1158.0
 30
0.0
  0
VERTEX
  5
756
  8
DOORS
 10
135.0000000000003126
 20
1158.0
 30
0.0
  0
SEQEND
  5
757
  8
DOORS
  0
POLYLINE
  5
494
  8
DOORS
 66
     1
 10
0.0
 20
0.0
 30
0.0
  0
VERTEX
  5
758
  8
DOORS
 10
106.0000000000002984
 20
602.9999999999998863
 30
0.0
  0
VERTEX
  5
759
  8
DOORS
 10
106.0000000000004974
 20
560.0000000000003411
 30
0.0
  0
VERTEX
  5
75A
  8
DOORS
 10
202.0000000000003979
 20
560.0000000000002274
 30
0.0
  0
VERTEX
  5
75B
  8
DOORS
 10
202.0000000000003979
 20
602.9999999999996589
 30
0.0
  0
VERTEX
  5
75C
  8
DOORS
 10
106.0000000000002984
 20
602.9999999999996589
 30
0.0
  0
SEQEND
  5
75D
  8
DOORS
  0
POLYLINE
  5
495
  8
DOORS
 66
     1
 10
0.0
 20
0.0
 30
0.0
  0
VERTEX
  5
75E
  8
DOORS
 10
293.3741575465627989
 20
611.1626307098855477
 30
0.0
  0
VERTEX
  5
75F
  8
DOORS
 10
301.6031510786575041
 20
599.8363927886364309
 30
0.0
  0
VERTEX
  5
760
  8
DOORS
 10
289.1675874903319254
 20
591.4484992365752305
 30
0.0
  0
VERTEX
  5
761
  8
DOORS
 10
298.5721515270114992
 20
578.5042273265760286
 30
0.0
  0
VERTEX
  5
762
  8
DOORS
 10
385.3878092770773947
 20
640.3931186464247958
 30
0.0
  0
VERTEX
  5
763
  8
DOORS
 10
375.9832452403977072
 20
653.3373905564241113
 30
0.0
  0
VERTEX
  5
764
  8
DOORS
 10
362.2299563360235197
 20
643.3450412674519612
 30
0.0
  0
VERTEX
  5
765
  8
DOORS
 10
354.0009628039289282
 20
654.6712791887013054
 30
0.0
  0
VERTEX
  5
766
  8
DOORS
 10
293.3741575465627989
 20
611.1626307098855477
 30
0.0
  0
SEQEND
  5
767
  8
DOORS
  0
POLYLINE
  5
496
  8
DOORS
 66
     1
 10
0.0
 20
0.0
 30
0.0
  0
VERTEX
  5
768
  8
DOORS
 10
409.6376459695587187
 20
670.9999999999995453
 30
0.0
  0
VERTEX
  5
769
  8
DOORS
 10
409.6376459695587187
 20
642.9999999999996589
 30
0.0
  0
VERTEX
  5
76A
  8
DOORS
 10
463.6376459695587187
 20
642.9999999999995453
 30
0.0
  0
VERTEX
  5
76B
  8
DOORS
 10
463.6376459695587187
 20
670.9999999999995453
 30
0.0
  0
VERTEX
  5
76C
  8
DOORS
 10
409.6376459695587187
 20
670.9999999999995453
 30
0.0
  0
SEQEND
  5
76D
  8
DOORS
  0
POLYLINE
  5
497
  8
DOORS
 66
     1
 10
0.0
 20
0.0
 30
0.0
  0
VERTEX
  5
76E
  8
DOORS
 10
471.0
 20
865.9999999999997726
 30
0.0
  0
VERTEX
  5
76F
  8
DOORS
 10
471.0
 20
806.9999999999997726
 30
0.0
  0
VERTEX
  5
770
  8
DOORS
 10
486.0000000000001137
 20
806.9999999999997726
 30
0.0
  0
VERTEX
  5
771
  8
DOORS
 10
486.0000000000001137
 20
865.9999999999997726
 30
0.0
  0
VERTEX
  5
772
  8
DOORS
 10
471.0
 20
865.9999999999997726
 30
0.0
  0
SEQEND
  5
773
  8
DOORS
  0
POLYLINE
  5
4AF
  8
DOORS
 66
     1
 10
0.0
 20
0.0
 30
0.0
  0
VERTEX
  5
774
  8
DOORS
 10
661.0000000000001137
 20
670.9999999999997726
 30
0.0
  0
VERTEX
  5
775
  8
DOORS
 10
661.0000000000001137
 20
643.9999999999995453
 30
0.0
  0
VERTEX
  5
776
  8
DOORS
 10
744.9999999999996589
 20
643.9999999999996589
 30
0.0
  0
VERTEX
  5
777
  8
DOORS
 10
744.9999999999996589
 20
670.9999999999997726
 30
0.0
  0
VERTEX
  5
778
  8
DOORS
 10
661.0000000000001137
 20
670.9999999999995453
 30
0.0
  0
SEQEND
  5
779
  8
DOORS
  0
POLYLINE
  5
4B0
  8
DOORS
 66
     1
 10
0.0
 20
0.0
 30
0.0
  0
VERTEX
  5
77A
  8
DOORS
 10
635.9999999999996589
 20
615.9999999999996589
 30
0.0
  0
VERTEX
  5
77B
  8
DOORS
 10
635.9999999999996589
 20
545.9999999999997726
 30
0.0
  0
VERTEX
  5
77C
  8
DOORS
 10
650.9999999999997726
 20
545.9999999999997726
 30
0.0
  0
VERTEX
  5
77D
  8
DOORS
 10
650.9999999999997726
 20
615.9999999999996589
 30
0.0
  0
VERTEX
  5
77E
  8
DOORS
 10
635.9999999999996589
 20
615.9999999999996589
 30
0.0
  0
SEQEND
  5
77F
  8
DOORS
  0
POLYLINE
  5
4B1
  8
DOORS
 66
     1
 10
0.0
 20
0.0
 30
0.0
  0
VERTEX
  5
780
  8
DOORS
 10
308.7212379572528107
 20
1130.8843493335120911
 30
0.0
  0
VERTEX
  5
781
  8
DOORS
 10
386.8221680895671852
 20
1058.9089823488309321
 30
0.0
  0
VERTEX
  5
782
  8
DOORS
 10
409.49413283976088
 20
1080.0509315107678958
 30
0.0
  0
VERTEX
  5
783
  8
DOORS
 10
331.393202707447017
 20
1152.0262984954499643
 30
0.0
  0
VERTEX
  5
784
  8
DOORS
 10
308.7212379572528107
 20
1130.8843493335120911
 30
0.0
  0
SEQEND
  5
785
  8
DOORS
  0
POLYLINE
  5
4B9
  8
DOORS
 66
     1
 10
0.0
 20
0.0
 30
0.0
  0
VERTEX
  5
786
  8
DOORS
 10
699.9999999999997726
 20
-51.0000000000002203
 30
0.0
  0
VERTEX
  5
787
  8
DOORS
 10
699.9999999999997726
 20
-87.5000000000002274
 30
0.0
  0
VERTEX
  5
788
  8
DOORS
 10
911.9999999999996589
 20
-87.5000000000002274
 30
0.0
  0
VERTEX
  5
789
  8
DOORS
 10
911.9999999999996589
 20
-51.0000000000002203
 30
0.0
  0
VERTEX
  5
78A
  8
DOORS
 10
699.9999999999997726
 20
-51.0000000000001918
 30
0.0
  0
SEQEND
  5
78B
  8
DOORS
  0
POLYLINE
  5
4BA
  8
DOORS
 66
     1
 10
0.0
 20
0.0
 30
0.0
  0
VERTEX
  5
78C
  8
DOORS
 10
541.9999999999997726
 20
-51.0000000000002203
 30
0.0
  0
VERTEX
  5
78D
  8
DOORS
 10
541.9999999999997726
 20
-86.0000000000002132
 30
0.0
  0
VERTEX
  5
78E
  8
DOORS
 10
545.0000000000006821
 20
-86.0000000000002558
 30
0.0
  0
VERTEX
  5
78F
  8
DOORS
 10
545.0000000000006821
 20
-121.9999999999991047
 30
0.0
  0
VERTEX
  5
790
  8
DOORS
 10
644.9999999999996589
 20
-121.9999999999989058
 30
0.0
  0
VERTEX
  5
791
  8
DOORS
 10
644.9999999999995453
 20
-86.0000000000002132
 30
0.0
  0
VERTEX
  5
792
  8
DOORS
 10
648.9999999999996589
 20
-86.0000000000002132
 30
0.0
  0
VERTEX
  5
793
  8
DOORS
 10
648.9999999999996589
 20
-51.0000000000002203
 30
0.0
  0
VERTEX
  5
794
  8
DOORS
 10
541.9999999999997726
 20
-51.0000000000002203
 30
0.0
  0
SEQEND
  5
795
  8
DOORS
  0
POLYLINE
  5
4BB
  8
DOORS
 66
     1
 10
0.0
 20
0.0
 30
0.0
  0
VERTEX
  5
796
  8
DOORS
 10
326.0000000000006253
 20
-54.9999999999992966
 30
0.0
  0
VERTEX
  5
797
  8
DOORS
 10
326.0000000000005116
 20
-89.9999999999993037
 30
0.0
  0
VERTEX
  5
798
  8
DOORS
 10
332.0000000000005116
 20
-89.9999999999993037
 30
0.0
  0
VERTEX
  5
799
  8
DOORS
 10
332.0000000000005116
 20
-121.9999999999993037
 30
0.0
  0
VERTEX
  5
79A
  8
DOORS
 10
430.0000000000006253
 20
-121.9999999999993037
 30
0.0
  0
VERTEX
  5
79B
  8
DOORS
 10
430.0000000000006253
 20
-90.9999999999994884
 30
0.0
  0
VERTEX
  5
79C
  8
DOORS
 10
433.0000000000006253
 20
-90.9999999999994884
 30
0.0
  0
VERTEX
  5
79D
  8
DOORS
 10
433.0000000000006253
 20
-54.9999999999994884
 30
0.0
  0
VERTEX
  5
79E
  8
DOORS
 10
326.0000000000006253
 20
-54.9999999999994102
 30
0.0
  0
SEQEND
  5
79F
  8
DOORS
  0
POLYLINE
  5
4BC
  8
DOORS
 66
     1
 10
0.0
 20
0.0
 30
0.0
  0
VERTEX
  5
7A0
  8
DOORS
 10
65.00000000000054
 20
-54.9999999999992681
 30
0.0
  0
VERTEX
  5
7A1
  8
DOORS
 10
65.0000000000001847
 20
-88.9999999999992468
 30
0.0
  0
VERTEX
  5
7A2
  8
DOORS
 10
275.0000000000006821
 20
-88.9999999999992468
 30
0.0
  0
VERTEX
  5
7A3
  8
DOORS
 10
275.0000000000006821
 20
-54.9999999999991331
 30
0.0
  0
VERTEX
  5
7A4
  8
DOORS
 10
65.00000000000054
 20
-54.9999999999984297
 30
0.0
  0
SEQEND
  5
7A5
  8
DOORS
  0
POLYLINE
  5
4EF
  8
WINDOWS
 66
     1
 10
0.0
 20
0.0
 30
0.0
  0
VERTEX
  5
7A6
  8
WINDOWS
 10
517.0
 20
1469.0
 30
0.0
  0
VERTEX
  5
7A7
  8
WINDOWS
 10
490.5000000000001137
 20
1469.0
 30
0.0
  0
VERTEX
  5
7A8
  8
WINDOWS
 10
490.5000000000002274
 20
1374.0
 30
0.0
  0
VERTEX
  5
7A9
  8
WINDOWS
 10
517.0
 20
1374.0
 30
0.0
  0
VERTEX
  5
7AA
  8
WINDOWS
 10
517.0
 20
1469.0
 30
0.0
  0
SEQEND
  5
7AB
  8
WINDOWS
  0
POLYLINE
  5
4FD
  8
WINDOWS
 66
     1
 10
0.0
 20
0.0
 30
0.0
  0
VERTEX
  5
7AC
  8
WINDOWS
 10
595.4953569352957174
 20
1159.7154276885410127
 30
0.0
  0
VERTEX
  5
7AD
  8
WINDOWS
 10
595.4953569352957174
 20
1133.7154276885410127
 30
0.0
  0
VERTEX
  5
7AE
  8
WINDOWS
 10
710.4999999999996589
 20
1133.4999999999990905
 30
0.0
  0
VERTEX
  5
7AF
  8
WINDOWS
 10
710.4999999999996589
 20
1159.7154276885410127
 30
0.0
  0
VERTEX
  5
7B0
  8
WINDOWS
 10
595.4953569352957174
 20
1159.7154276885410127
 30
0.0
  0
SEQEND
  5
7B1
  8
WINDOWS
  0
POLYLINE
  5
4FE
  8
WINDOWS
 66
     1
 10
0.0
 20
0.0
 30
0.0
  0
VERTEX
  5
7B2
  8
WINDOWS
 10
707.9999999999997726
 20
-87.5000000000002274
 30
0.0
  0
VERTEX
  5
7B3
  8
WINDOWS
 10
707.9999999999997726
 20
-98.9999999999994742
 30
0.0
  0
VERTEX
  5
7B4
  8
WINDOWS
 10
904.9999999999996589
 20
-98.9999999999994742
 30
0.0
  0
VERTEX
  5
7B5
  8
WINDOWS
 10
904.9999999999996589
 20
-87.5000000000002274
 30
0.0
  0
VERTEX
  5
7B6
  8
WINDOWS
 10
707.9999999999997726
 20
-87.5000000000002132
 30
0.0
  0
SEQEND
  5
7B7
  8
WINDOWS
  0
POLYLINE
  5
4FF
  8
WINDOWS
 66
     1
 10
0.0
 20
0.0
 30
0.0
  0
VERTEX
  5
7B8
  8
WINDOWS
 10
72.00000000000054
 20
-88.9999999999992468
 30
0.0
  0
VERTEX
  5
7B9
  8
WINDOWS
 10
72.00000000000054
 20
-97.9999999999993037
 30
0.0
  0
VERTEX
  5
7BA
  8
WINDOWS
 10
268.0000000000005116
 20
-97.9999999999992752
 30
0.0
  0
VERTEX
  5
7BB
  8
WINDOWS
 10
268.0000000000005116
 20
-88.9999999999992468
 30
0.0
  0
VERTEX
  5
7BC
  8
WINDOWS
 10
72.00000000000054
 20
-88.9999999999992184
 30
0.0
  0
SEQEND
  5
7BD
  8
WINDOWS
  0
POLYLINE
  5
500
  8
DOORS
 66
     1
 10
0.0
 20
0.0
 30
0.0
  0
VERTEX
  5
7BE
  8
DOORS
 10
463.0000000000001137
 20
1477.0
 30
0.0
  0
VERTEX
  5
7BF
  8
DOORS
 10
463.0000000000001137
 20
1367.0
 30
0.0
  0
VERTEX
  5
7C0
  8
DOORS
 10
490.5000000000001137
 20
1367.0
 30
0.0
  0
VERTEX
  5
7C1
  8
DOORS
 10
490.4999999999993747
 20
1477.0
 30
0.0
  0
VERTEX
  5
7C2
  8
DOORS
 10
463.0000000000001137
 20
1477.0
 30
0.0
  0
SEQEND
  5
7C3
  8
DOORS
  0
POLYLINE
  5
501
  8
DOORS
 66
     1
 10
0.0
 20
0.0
 30
0.0
  0
VERTEX
  5
7C4
  8
DOORS
 10
590.4999999999996589
 20
1133.4999999999990905
 30
0.0
  0
VERTEX
  5
7C5
  8
DOORS
 10
590.4999999999996589
 20
1092.0
 30
0.0
  0
VERTEX
  5
7C6
  8
DOORS
 10
714.4999999999994316
 20
1092.0
 30
0.0
  0
VERTEX
  5
7C7
  8
DOORS
 10
714.4999999999996589
 20
1132.5
 30
0.0
  0
VERTEX
  5
7C8
  8
DOORS
 10
590.4999999999996589
 20
1132.5
 30
0.0
  0
SEQEND
  5
7C9
  8
DOORS
  0
POLYLINE
  5
502
  8
DOORS
 66
     1
 10
0.0
 20
0.0
 30
0.0
  0
VERTEX
  5
7CA
  8
DOORS
 10
432.0553261897085235
 20
1026.5926159453770197
 30
0.0
  0
VERTEX
  5
7CB
  8
DOORS
 10
432.0553261897085235
 20
982.5926159453777018
 30
0.0
  0
VERTEX
  5
7CC
  8
DOORS
 10
471.0
 20
1020.0
 30
0.0
  0
VERTEX
  5
7CD
  8
DOORS
 10
471.0
 20
1066.0
 30
0.0
  0
VERTEX
  5
7CE
  8
DOORS
 10
432.0553261897085235
 20
1026.5926159453770197
 30
0.0
  0
SEQEND
  5
7CF
  8
DOORS
  0
POLYLINE
  5
50A
  8
ROOMS
 66
     1
 10
0.0
 20
0.0
 30
0.0
  0
VERTEX
  5
7D0
  8
ROOMS
 10
395.0
 20
946.9999999999996589
 30
0.0
  0
VERTEX
  5
7D1
  8
ROOMS
 10
395.0000000000001137
 20
785.9999999999996589
 30
0.0
  0
VERTEX
  5
7D2
  8
ROOMS
 10
471.0
 20
785.9999999999996589
 30
0.0
  0
VERTEX
  5
7D3
  8
ROOMS
 10
470.9999999999997726
 20
1019.9999999999989768
 30
0.0
  0
VERTEX
  5
7D4
  8
ROOMS
 10
395.0000000000001137
 20
946.9999999999997726
 30
0.0
  0
SEQEND
  5
7D5
  8
ROOMS
  0
LINE
  5
512
  8
0
 10
296.1293246362811828
 20
576.7627920616511119
 30
0.0
 11
323.3185582473806789
 21
564.0842442094301532
 31
0.0
  0
LINE
  5
513
  8
0
 10
323.3185582473806789
 20
564.0842442094301532
 30
0.0
 11
389.4790267010561138
 21
533.2331111023590893
 31
0.0
  0
LINE
  5
515
  8
0
 10
389.4790267010561138
 20
533.2331111023590893
 30
0.0
 11
375.5326240636130137
 21
503.3249541301495924
 31
0.0
  0
LINE
  5
516
  8
0
 10
323.3185582473806789
 20
564.0842442094301532
 30
0.0
 11
310.2173921334190254
 21
535.988702811294047
 31
0.0
  0
LINE
  5
517
  8
0
 10
310.2173921334190254
 20
535.988702811294047
 30
0.0
 11
375.5326240636130137
 21
503.3249541301497061
 31
0.0
  0
POLYLINE
  5
534
  8
DOORS
 66
     1
 10
0.0
 20
0.0
 30
0.0
  0
VERTEX
  5
7D6
  8
DOORS
 10
323.3185582473806789
 20
564.0842442094301532
 30
0.0
  0
VERTEX
  5
7D7
  8
DOORS
 10
310.2173921334190254
 20
535.988702811294047
 30
0.0
  0
VERTEX
  5
7D8
  8
DOORS
 10
375.5326240636130137
 20
503.3249541301497061
 30
0.0
  0
VERTEX
  5
7D9
  8
DOORS
 10
389.4790267010561138
 20
533.2331111023590893
 30
0.0
  0
VERTEX
  5
7DA
  8
DOORS
 10
323.3185582473806789
 20
564.0842442094301532
 30
0.0
  0
SEQEND
  5
7DB
  8
DOORS
  0
POLYLINE
  5
550
  8
DOORS
 66
     1
 10
0.0
 20
0.0
 30
0.0
  0
VERTEX
  5
7DC
  8
DOORS
 10
662.9999999999997726
 20
516.9999999999997726
 30
0.0
  0
VERTEX
  5
7DD
  8
DOORS
 10
662.9999999999997726
 20
473.9999999999997158
 30
0.0
  0
VERTEX
  5
7DE
  8
DOORS
 10
746.9999999999996589
 20
473.9999999999997158
 30
0.0
  0
VERTEX
  5
7DF
  8
DOORS
 10
746.9999999999996589
 20
516.9999999999997726
 30
0.0
  0
VERTEX
  5
7E0
  8
DOORS
 10
662.9999999999997726
 20
516.9999999999997726
 30
0.0
  0
SEQEND
  5
7E1
  8
DOORS
  0
ENDSEC
  0
EOF
