<?xml version="1.0" encoding="UTF-8" standalone="no"?>
<svg
   xmlns:dc="http://purl.org/dc/elements/1.1/"
   xmlns:cc="http://creativecommons.org/ns#"
   xmlns:rdf="http://www.w3.org/1999/02/22-rdf-syntax-ns#"
   xmlns:svg="http://www.w3.org/2000/svg"
   xmlns="http://www.w3.org/2000/svg"
   xmlns:sodipodi="http://sodipodi.sourceforge.net/DTD/sodipodi-0.dtd"
   xmlns:inkscape="http://www.inkscape.org/namespaces/inkscape"
   id="svg2837"
   version="1.1"
   inkscape:version="0.47 r22583"
   width="100%"
   height="100%"
   sodipodi:docname="final.dxf">
  <metadata
     id="metadata3254">
    <rdf:RDF>
      <cc:Work
         rdf:about="">
        <dc:format>image/svg+xml</dc:format>
        <dc:type
           rdf:resource="http://purl.org/dc/dcmitype/StillImage" />
        <dc:title></dc:title>
      </cc:Work>
    </rdf:RDF>
  </metadata>
  <sodipodi:namedview
     pagecolor="#ffffff"
     bordercolor="#666666"
     borderopacity="1"
     objecttolerance="10"
     gridtolerance="10"
     guidetolerance="10"
     inkscape:pageopacity="0"
     inkscape:pageshadow="2"
     inkscape:window-width="920"
     inkscape:window-height="609"
     id="namedview3252"
     showgrid="false"
     inkscape:zoom="0.63"
     inkscape:cx="372.04724"
     inkscape:cy="584.8936"
     inkscape:window-x="0"
     inkscape:window-y="0"
     inkscape:window-maximized="0"
     inkscape:current-layer="g2848" />
  <desc
     id="desc2839">/Users/meye/Desktop/Netz39/groundplan/final.dxf - scale = 0.127082</desc>
  <defs
     id="defs2841">
    <inkscape:perspective
       sodipodi:type="inkscape:persp3d"
       inkscape:vp_x="0 : 0.5 : 1"
       inkscape:vp_y="0 : 1000 : 0"
       inkscape:vp_z="1 : 0.5 : 1"
       inkscape:persp3d-origin="0.5 : 0.33333333 : 1"
       id="perspective3256" />
    <marker
       id="DistanceX"
       orient="auto"
       refX="0.0"
       refY="0.0"
       style="overflow:visible">
      <path
         d="M 3,-3 L -3,3 M 0,-5 L  0,5"
         style="stroke:#000000; stroke-width:0.5"
         id="path2844" />
    </marker>
    <symbol
       id="$MODEL_SPACE" />
    <symbol
       id="$PAPER_SPACE" />
  </defs>
  <g
     inkscape:groupmode="layer"
     inkscape:label="0"
     id="g2848">
    <path
       d="M 84.037129,73.773193 84.037129,104.843141"
       style="stroke:#000000;fill:none"
       id="path2850" />
    <path
       d="M 84.037129,104.843141 70.528456,104.843141"
       style="stroke:#000000;fill:none"
       id="path2852" />
    <path
       d="M 84.037129,73.773193 265.503635,73.773193"
       style="stroke:#000000;fill:none"
       id="path2854" />
    <path
       d="M 265.503635,73.773193 265.503635,123.304994"
       style="stroke:#000000;fill:none"
       id="path2856" />
    <path
       d="M 265.503635,123.304994 277.886585,123.304994"
       style="stroke:#000000;fill:none"
       id="path2858" />
    <path
       d="M 289.819246,123.304994 289.819246,73.773193"
       style="stroke:#000000;fill:none"
       id="path2860" />
    <path
       d="M 277.886585,73.773193 265.503635,73.773193"
       style="stroke:#000000;fill:none"
       id="path2862" />
    <path
       d="M 277.886585,123.304994 258.749298,123.304994"
       style="stroke:#000000;fill:none"
       id="path2864" />
    <path
       d="M 70.528456,217.415415 117.808811,217.415415"
       style="stroke:#000000;fill:none"
       id="path2866" />
    <path
       d="M 117.808811,217.415415 117.808811,236.777846"
       style="stroke:#000000;fill:none"
       id="path2868" />
    <path
       d="M 117.808811,217.415415 155.633095,217.415415"
       style="stroke:#000000;fill:none"
       id="path2870" />
    <path
       d="M 155.633095,217.415415 155.633095,236.777846"
       style="stroke:#000000;fill:none"
       id="path2872" />
    <path
       d="M 155.633095,236.777846 70.528456,236.777846"
       style="stroke:#000000;fill:none"
       id="path2874" />
    <path
       d="M 155.633095,236.777846 183.100730,236.777846"
       style="stroke:#000000;fill:none"
       id="path2876" />
    <path
       d="M 155.633095,217.415415 166.214889,217.415415"
       style="stroke:#000000;fill:none"
       id="path2878" />
    <path
       d="M 258.749298,123.304994 258.749298,129.609041"
       style="stroke:#000000;fill:none"
       id="path2880" />
    <path
       d="M 258.749298,129.609041 166.214889,217.415415"
       style="stroke:#000000;fill:none"
       id="path2882" />
    <path
       d="M 289.819246,123.304994 289.819246,142.168758"
       style="stroke:#000000;fill:none"
       id="path2884" />
    <path
       d="M 222.275882,283.157623 222.275882,439.858229"
       style="stroke:#000000;fill:none"
       id="path2886" />
    <path
       d="M 238.486289,268.748372 222.275882,283.157623"
       style="stroke:#000000;fill:none"
       id="path2888" />
    <path
       d="M 192.556801,226.421197 183.100730,236.777846"
       style="stroke:#000000;fill:none"
       id="path2890" />
    <path
       d="M 192.556801,226.421197 238.486289,268.748372"
       style="stroke:#000000;fill:none"
       id="path2892" />
    <path
       d="M 192.556801,226.421197 196.033590,229.625297"
       style="stroke:#000000;fill:none"
       id="path2894" />
    <path
       d="M 196.033590,229.625297 206.242529,220.105308"
       style="stroke:#000000;fill:none"
       id="path2896" />
    <path
       d="M 238.486289,268.748372 231.201588,262.035020"
       style="stroke:#000000;fill:none"
       id="path2898" />
    <path
       d="M 231.201588,262.035020 241.410526,252.515031"
       style="stroke:#000000;fill:none"
       id="path2900" />
    <path
       d="M 206.242529,220.105308 241.410526,252.515031"
       style="stroke:#000000;fill:none"
       id="path2902" />
    <path
       d="M 231.201588,262.035020 243.057129,250.979549"
       style="stroke:#000000;fill:none"
       id="path2904" />
    <path
       d="M 243.057129,250.979549 247.356479,255.590037"
       style="stroke:#000000;fill:none"
       id="path2906" />
    <path
       d="M 184.001308,467.325864 222.275882,439.858229"
       style="stroke:#000000;fill:none"
       id="path2908" />
    <path
       d="M 184.001308,467.325864 147.978181,467.325864"
       style="stroke:#000000;fill:none"
       id="path2910" />
    <path
       d="M 147.978181,467.325864 104.750427,467.325864"
       style="stroke:#000000;fill:none"
       id="path2912" />
    <path
       d="M 104.750427,467.325864 84.487418,467.325864"
       style="stroke:#000000;fill:none"
       id="path2914" />
    <path
       d="M 84.487418,467.325864 84.487418,433.554182"
       style="stroke:#000000;fill:none"
       id="path2916" />
    <path
       d="M 84.487418,433.554182 70.528456,433.554182"
       style="stroke:#000000;fill:none"
       id="path2918" />
    <path
       d="M 70.528456,433.554182 70.528456,236.777846"
       style="stroke:#000000;fill:none"
       id="path2920" />
    <path
       d="M 206.242529,220.105308 289.819246,142.168758"
       style="stroke:#000000;fill:none"
       id="path2922" />
    <path
       d="M 222.275882,439.858229 216.422557,444.058850"
       style="stroke:#000000;fill:none"
       id="path2924" />
    <path
       d="M 184.001308,467.325864 189.122967,463.650320"
       style="stroke:#000000;fill:none"
       id="path2926" />
    <path
       d="M 104.750427,467.325864 104.750427,486.688295"
       style="stroke:#000000;fill:none"
       id="path2928" />
    <path
       d="M 104.750427,486.688295 75.481636,486.688295"
       style="stroke:#000000;fill:none"
       id="path2930" />
    <path
       d="M 75.481636,486.688295 75.481636,514.606219"
       style="stroke:#000000;fill:none"
       id="path2932" />
    <path
       d="M 75.481636,514.606219 67.376432,514.606219"
       style="stroke:#000000;fill:none"
       id="path2934" />
    <path
       d="M 67.376432,514.606219 67.376432,763.616090"
       style="stroke:#000000;fill:none"
       id="path2936" />
    <path
       d="M 67.376432,763.616090 86.288574,763.616090"
       style="stroke:#000000;fill:none"
       id="path2938" />
    <path
       d="M 86.288574,763.616090 86.288574,778.925919"
       style="stroke:#000000;fill:none"
       id="path2940" />
    <path
       d="M 86.288574,763.616090 180.849285,763.616090"
       style="stroke:#000000;fill:none"
       id="path2942" />
    <path
       d="M 180.849285,763.616090 203.814029,763.616090"
       style="stroke:#000000;fill:none"
       id="path2944" />
    <path
       d="M 203.814029,763.616090 203.814029,779.376208"
       style="stroke:#000000;fill:none"
       id="path2946" />
    <path
       d="M 203.814029,763.616090 251.994962,763.616090"
       style="stroke:#000000;fill:none"
       id="path2948" />
    <path
       d="M 251.994962,763.616090 251.994962,779.826497"
       style="stroke:#000000;fill:none"
       id="path2950" />
    <path
       d="M 147.978181,467.325864 147.978181,486.688295"
       style="stroke:#000000;fill:none"
       id="path2952" />
    <path
       d="M 147.978181,486.688295 163.288010,486.688295"
       style="stroke:#000000;fill:none"
       id="path2954" />
    <path
       d="M 163.288010,486.688295 245.690915,525.413157"
       style="stroke:#000000;fill:none"
       id="path2956" />
    <path
       d="M 245.690915,525.413157 268.205369,525.413157"
       style="stroke:#000000;fill:none"
       id="path2958" />
    <path
       d="M 268.205369,525.413157 268.205369,593.857100"
       style="stroke:#000000;fill:none"
       id="path2960" />
    <path
       d="M 268.205369,593.857100 280.813464,593.857100"
       style="stroke:#000000;fill:none"
       id="path2962" />
    <path
       d="M 268.205369,703.277351 268.205369,763.616090"
       style="stroke:#000000;fill:none"
       id="path2964" />
    <path
       d="M 251.994962,763.616090 268.205369,763.616090"
       style="stroke:#000000;fill:none"
       id="path2966" />
    <path
       d="M 280.813464,761.814933 280.813464,703.277351"
       style="stroke:#000000;fill:none"
       id="path2968" />
    <path
       d="M 280.813464,525.413157 355.561454,525.413157"
       style="stroke:#000000;fill:none"
       id="path2970" />
    <path
       d="M 355.561454,525.413157 393.385738,525.413157"
       style="stroke:#000000;fill:none"
       id="path2972" />
    <path
       d="M 393.385738,525.413157 396.988051,525.413157"
       style="stroke:#000000;fill:none"
       id="path2974" />
    <path
       d="M 396.988051,525.413157 396.988051,537.570963"
       style="stroke:#000000;fill:none"
       id="path2976" />
    <path
       d="M 396.988051,537.570963 547.384610,537.570963"
       style="stroke:#000000;fill:none"
       id="path2978" />
    <path
       d="M 547.384610,537.570963 547.384610,669.955957"
       style="stroke:#000000;fill:none"
       id="path2980" />
    <path
       d="M 547.384610,669.955957 535.677093,669.955957"
       style="stroke:#000000;fill:none"
       id="path2982" />
    <path
       d="M 535.677093,669.955957 535.677093,686.166365"
       style="stroke:#000000;fill:none"
       id="path2984" />
    <path
       d="M 535.677093,686.166365 547.384610,686.166365"
       style="stroke:#000000;fill:none"
       id="path2986" />
    <path
       d="M 547.384610,686.166365 547.384610,761.814933"
       style="stroke:#000000;fill:none"
       id="path2988" />
    <path
       d="M 547.384610,761.814933 467.683439,761.814933"
       style="stroke:#000000;fill:none"
       id="path2990" />
    <path
       d="M 467.683439,761.814933 467.683439,778.250485"
       style="stroke:#000000;fill:none"
       id="path2992" />
    <path
       d="M 467.683439,761.814933 372.222151,761.814933"
       style="stroke:#000000;fill:none"
       id="path2994" />
    <path
       d="M 372.222151,761.814933 372.222151,778.250485"
       style="stroke:#000000;fill:none"
       id="path2996" />
    <path
       d="M 372.222151,761.814933 349.257407,761.814933"
       style="stroke:#000000;fill:none"
       id="path2998" />
    <path
       d="M 349.257407,761.814933 349.257407,777.575052"
       style="stroke:#000000;fill:none"
       id="path3000" />
    <path
       d="M 349.257407,761.814933 301.076474,761.814933"
       style="stroke:#000000;fill:none"
       id="path3002" />
    <path
       d="M 301.076474,761.814933 301.076474,777.575052"
       style="stroke:#000000;fill:none"
       id="path3004" />
    <path
       d="M 301.076474,761.814933 280.813464,761.814933"
       style="stroke:#000000;fill:none"
       id="path3006" />
    <path
       d="M 280.813464,703.277351 268.205369,703.277351"
       style="stroke:#000000;fill:none"
       id="path3008" />
    <path
       d="M 355.561454,525.413157 355.561454,506.050726"
       style="stroke:#000000;fill:none"
       id="path3010" />
    <path
       d="M 393.385738,525.413157 393.385738,506.050726"
       style="stroke:#000000;fill:none"
       id="path3012" />
    <path
       d="M 393.385738,506.050726 411.847591,506.050726"
       style="stroke:#000000;fill:none"
       id="path3014" />
    <path
       d="M 411.847591,506.050726 411.847591,448.864011"
       style="stroke:#000000;fill:none"
       id="path3016" />
    <path
       d="M 411.847591,448.864011 392.485160,448.864011"
       style="stroke:#000000;fill:none"
       id="path3018" />
    <path
       d="M 392.485160,448.864011 392.485160,436.706205"
       style="stroke:#000000;fill:none"
       id="path3020" />
    <path
       d="M 392.485160,436.706205 354.660876,436.706205"
       style="stroke:#000000;fill:none"
       id="path3022" />
    <path
       d="M 354.660876,436.706205 354.660876,448.864011"
       style="stroke:#000000;fill:none"
       id="path3024" />
    <path
       d="M 350.157985,448.864011 350.157985,506.050726"
       style="stroke:#000000;fill:none"
       id="path3026" />
    <path
       d="M 350.157985,492.992342 343.403649,492.992342"
       style="stroke:#000000;fill:none"
       id="path3028" />
    <path
       d="M 343.403649,492.992342 343.403649,506.050726"
       style="stroke:#000000;fill:none"
       id="path3030" />
    <path
       d="M 232.202349,449.314300 270.293651,449.314300"
       style="stroke:#000000;fill:none"
       id="path3032" />
    <path
       d="M 343.403649,449.314300 343.403649,461.472106"
       style="stroke:#000000;fill:none"
       id="path3034" />
    <path
       d="M 343.403649,461.472106 350.157985,461.472106"
       style="stroke:#000000;fill:none"
       id="path3036" />
    <path
       d="M 350.157985,448.864011 354.660876,448.864011"
       style="stroke:#000000;fill:none"
       id="path3038" />
    <path
       d="M 343.403649,461.472106 343.403649,492.992342"
       style="stroke:#000000;fill:none"
       id="path3040" />
    <path
       d="M 354.660876,448.864011 392.485160,448.864011"
       style="stroke:#000000;fill:none"
       id="path3042" />
    <path
       d="M 355.561454,506.050726 350.157985,506.050726"
       style="stroke:#000000;fill:none"
       id="path3044" />
    <path
       d="M 343.403649,506.050726 275.860284,506.050726"
       style="stroke:#000000;fill:none"
       id="path3046" />
    <path
       d="M 275.860284,506.050726 275.860284,449.314300"
       style="stroke:#000000;fill:none"
       id="path3048" />
    <path
       d="M 275.860284,375.466888 275.860284,348.899831"
       style="stroke:#000000;fill:none"
       id="path3050" />
    <path
       d="M 275.860284,348.899831 269.105948,348.899831"
       style="stroke:#000000;fill:none"
       id="path3052" />
    <path
       d="M 269.105948,348.899831 269.105948,375.466888"
       style="stroke:#000000;fill:none"
       id="path3054" />
    <path
       d="M 269.105948,375.466888 275.860284,375.466888"
       style="stroke:#000000;fill:none"
       id="path3056" />
    <path
       d="M 269.105948,375.466888 269.105948,384.922959"
       style="stroke:#000000;fill:none"
       id="path3058" />
    <path
       d="M 269.105948,384.922959 234.883976,384.922959"
       style="stroke:#000000;fill:none"
       id="path3060" />
    <path
       d="M 234.883976,436.706205 234.883976,396.405331"
       style="stroke:#000000;fill:none"
       id="path3062" />
    <path
       d="M 269.105948,258.842012 269.105948,279.555310"
       style="stroke:#000000;fill:none"
       id="path3064" />
    <path
       d="M 269.105948,279.555310 234.883976,312.426414"
       style="stroke:#000000;fill:none"
       id="path3066" />
    <path
       d="M 251.569586,276.586727 269.105948,258.842012"
       style="stroke:#000000;fill:none"
       id="path3068" />
    <path
       d="M 355.561454,506.050726 393.385738,506.050726"
       style="stroke:#000000;fill:none"
       id="path3070" />
    <path
       d="M 392.485160,436.706205 399.689786,436.706205"
       style="stroke:#000000;fill:none"
       id="path3072" />
    <path
       d="M 399.689786,436.706205 399.689786,386.273826"
       style="stroke:#000000;fill:none"
       id="path3074" />
    <path
       d="M 399.689786,386.273826 414.099037,386.273826"
       style="stroke:#000000;fill:none"
       id="path3076" />
    <path
       d="M 414.099037,386.273826 414.099037,247.134495"
       style="stroke:#000000;fill:none"
       id="path3078" />
    <path
       d="M 414.099037,247.134495 378.751343,247.134495"
       style="stroke:#000000;fill:none"
       id="path3080" />
    <path
       d="M 378.751343,247.134495 378.751343,228.897787"
       style="stroke:#000000;fill:none"
       id="path3082" />
    <path
       d="M 378.751343,228.897787 378.751343,228.447498"
       style="stroke:#000000;fill:none"
       id="path3084" />
    <path
       d="M 378.751343,228.447498 322.915495,228.447498"
       style="stroke:#000000;fill:none"
       id="path3086" />
    <path
       d="M 322.915495,228.447498 322.915495,247.134495"
       style="stroke:#000000;fill:none"
       id="path3088" />
    <path
       d="M 322.915495,247.134495 304.903931,247.134495"
       style="stroke:#000000;fill:none"
       id="path3090" />
    <path
       d="M 275.860284,348.899831 275.860284,270.549528"
       style="stroke:#000000;fill:none"
       id="path3092" />
    <path
       d="M 275.860284,270.549528 304.903931,247.134495"
       style="stroke:#000000;fill:none"
       id="path3094" />
    <path
       d="M 322.915495,247.134495 378.751343,247.134495"
       style="stroke:#000000;fill:none"
       id="path3096" />
    <path
       d="M 322.915495,228.447498 325.164849,228.350493"
       style="stroke:#000000;fill:none"
       id="path3098" />
    <path
       d="M 325.164849,228.350493 325.164849,216.642977"
       style="stroke:#000000;fill:none"
       id="path3100" />
    <path
       d="M 325.164849,216.642977 291.843456,216.642977"
       style="stroke:#000000;fill:none"
       id="path3102" />
    <path
       d="M 291.843456,216.642977 247.356479,255.590037"
       style="stroke:#000000;fill:none"
       id="path3104" />
    <path
       d="M 376.950186,228.447498 376.950186,216.642977"
       style="stroke:#000000;fill:none"
       id="path3106" />
    <path
       d="M 376.950186,216.642977 566.296752,216.642977"
       style="stroke:#000000;fill:none"
       id="path3108" />
    <path
       d="M 325.164849,216.642977 376.950186,216.642977"
       style="stroke:#000000;fill:none"
       id="path3110" />
    <path
       d="M 189.122967,463.650320 192.828394,468.750402"
       style="stroke:#000000;fill:none"
       id="path3112" />
    <path
       d="M 192.828394,468.750402 187.228795,472.527379"
       style="stroke:#000000;fill:none"
       id="path3114" />
    <path
       d="M 187.228795,472.527379 191.463567,478.356043"
       style="stroke:#000000;fill:none"
       id="path3116" />
    <path
       d="M 216.422557,444.058850 220.127983,449.158932"
       style="stroke:#000000;fill:none"
       id="path3118" />
    <path
       d="M 220.127983,449.158932 226.320939,444.659486"
       style="stroke:#000000;fill:none"
       id="path3120" />
    <path
       d="M 226.320939,444.659486 230.555712,450.488150"
       style="stroke:#000000;fill:none"
       id="path3122" />
    <path
       d="M 232.202349,449.314300 190.363589,479.140192"
       style="stroke:#000000;fill:none"
       id="path3124" />
    <path
       d="M 190.363589,479.140192 248.073415,506.050726"
       style="stroke:#000000;fill:none"
       id="path3126" />
    <path
       d="M 270.293651,506.050726 270.293651,449.314300"
       style="stroke:#000000;fill:none"
       id="path3128" />
    <path
       d="M 270.293651,506.050726 248.073415,506.050726"
       style="stroke:#000000;fill:none"
       id="path3130" />
    <path
       d="M 275.860284,449.314300 343.403649,449.314300"
       style="stroke:#000000;fill:none"
       id="path3132" />
    <path
       d="M 275.860284,436.706205 275.860284,375.466888"
       style="stroke:#000000;fill:none"
       id="path3134" />
    <path
       d="M 270.293651,449.314300 265.790760,449.314300"
       style="stroke:#000000;fill:none"
       id="path3136" />
    <path
       d="M 265.790760,449.314300 265.790760,436.706205"
       style="stroke:#000000;fill:none"
       id="path3138" />
    <path
       d="M 270.293651,434.905049 270.293651,396.405331"
       style="stroke:#000000;fill:none"
       id="path3140" />
    <path
       d="M 270.293651,396.405331 234.883976,396.405331"
       style="stroke:#000000;fill:none"
       id="path3142" />
    <path
       d="M 241.475149,436.706205 241.475149,449.314300"
       style="stroke:#000000;fill:none"
       id="path3144" />
    <path
       d="M 270.293651,436.706205 270.293651,396.405331"
       style="stroke:#000000;fill:none"
       id="path3146" />
    <path
       d="M 192.828394,468.750402 220.127983,449.158932"
       style="stroke:#000000;fill:none"
       id="path3148" />
    <path
       d="M 234.883976,384.922959 234.883976,312.426414"
       style="stroke:#000000;fill:none"
       id="path3150" />
    <path
       d="M 234.883976,436.706205 270.293651,436.706205"
       style="stroke:#000000;fill:none"
       id="path3152" />
    <path
       d="M 275.860284,436.706205 354.660876,436.706205"
       style="stroke:#000000;fill:none"
       id="path3154" />
    <path
       d="M 70.528456,217.415415 70.528456,104.843141"
       style="stroke:#000000;fill:none"
       id="path3156" />
    <path
       d="M 280.813464,593.857100 280.813464,525.413157"
       style="stroke:#000000;fill:none"
       id="path3158" />
    <path
       d="M 269.105948,279.555310 251.569586,296.399448"
       style="stroke:#000000;fill:none"
       id="path3160" />
    <path
       d="M 251.569586,296.399448 251.569586,276.586727"
       style="stroke:#000000;fill:none"
       id="path3162" />
    <path
       d="M 269.105948,348.899831 269.105948,279.555310"
       style="stroke:#000000;fill:none"
       id="path3164" />
    <path
       d="M 104.750427,486.688295 147.978181,486.688295"
       style="stroke:#000000;fill:none"
       id="path3166" />
    <path
       d="M 203.814029,779.376208 206.515763,779.376208"
       style="stroke:#000000;fill:none"
       id="path3168" />
    <path
       d="M 206.515763,779.376208 206.515763,793.785459"
       style="stroke:#000000;fill:none"
       id="path3170" />
    <path
       d="M 206.515763,793.785459 177.697261,793.785459"
       style="stroke:#000000;fill:none"
       id="path3172" />
    <path
       d="M 177.697261,793.785459 177.697261,778.925919"
       style="stroke:#000000;fill:none"
       id="path3174" />
    <path
       d="M 177.697261,782.978521 89.440598,782.978521"
       style="stroke:#000000;fill:none"
       id="path3176" />
    <path
       d="M 89.440598,778.925919 89.440598,793.785459"
       style="stroke:#000000;fill:none"
       id="path3178" />
    <path
       d="M 89.440598,793.785459 52.967181,793.785459"
       style="stroke:#000000;fill:none"
       id="path3180" />
    <path
       d="M 52.967181,793.785459 52.967181,43.603824"
       style="stroke:#000000;fill:none"
       id="path3182" />
    <path
       d="M 86.288574,778.925919 180.849285,778.925919"
       style="stroke:#000000;fill:none"
       id="path3184" />
    <path
       d="M 180.849285,778.925919 180.849285,763.616090"
       style="stroke:#000000;fill:none"
       id="path3186" />
    <path
       d="M 251.994962,779.826497 250.644095,779.826497"
       style="stroke:#000000;fill:none"
       id="path3188" />
    <path
       d="M 250.644095,779.826497 250.644095,794.235748"
       style="stroke:#000000;fill:none"
       id="path3190" />
    <path
       d="M 250.644095,794.235748 302.427341,794.235748"
       style="stroke:#000000;fill:none"
       id="path3192" />
    <path
       d="M 302.427341,794.235748 302.427341,777.575052"
       style="stroke:#000000;fill:none"
       id="path3194" />
    <path
       d="M 302.427341,777.575052 301.076474,777.575052"
       style="stroke:#000000;fill:none"
       id="path3196" />
    <path
       d="M 349.257407,777.575052 347.456251,777.575052"
       style="stroke:#000000;fill:none"
       id="path3198" />
    <path
       d="M 347.456251,777.575052 347.456251,794.235748"
       style="stroke:#000000;fill:none"
       id="path3200" />
    <path
       d="M 347.456251,794.235748 375.824464,794.235748"
       style="stroke:#000000;fill:none"
       id="path3202" />
    <path
       d="M 375.824464,794.235748 375.824464,778.250485"
       style="stroke:#000000;fill:none"
       id="path3204" />
    <path
       d="M 375.824464,783.428810 464.531416,783.428810"
       style="stroke:#000000;fill:none"
       id="path3206" />
    <path
       d="M 464.531416,778.250485 464.531416,794.235748"
       style="stroke:#000000;fill:none"
       id="path3208" />
    <path
       d="M 464.531416,794.235748 566.296752,794.235748"
       style="stroke:#000000;fill:none"
       id="path3210" />
    <path
       d="M 566.296752,794.235748 566.296752,216.642977"
       style="stroke:#000000;fill:none"
       id="path3212" />
    <path
       d="M 206.515763,793.785459 250.644095,794.235748"
       style="stroke:#000000;fill:none"
       id="path3214" />
    <path
       d="M 302.427341,794.235748 347.456251,794.235748"
       style="stroke:#000000;fill:none"
       id="path3216" />
    <path
       d="M 372.222151,778.250485 467.683439,778.250485"
       style="stroke:#000000;fill:none"
       id="path3218" />
    <path
       d="M 289.819246,73.773193 289.819246,43.603824"
       style="stroke:#000000;fill:none"
       id="path3220" />
    <path
       d="M 289.819246,43.603824 52.967181,43.603824"
       style="stroke:#000000;fill:none"
       id="path3222" />
    <path
       d="M 277.886585,123.304994 277.886585,73.773193"
       style="stroke:#000000;fill:none"
       id="path3224" />
    <path
       d="M 277.886585,123.304994 277.886585,120.152970"
       style="stroke:#000000;fill:none"
       id="path3226" />
    <path
       d="M 277.886585,120.152970 289.819246,120.152970"
       style="stroke:#000000;fill:none"
       id="path3228" />
    <path
       d="M 277.886585,73.773193 277.886585,77.375506"
       style="stroke:#000000;fill:none"
       id="path3230" />
    <path
       d="M 277.886585,77.375506 289.819246,77.375506"
       style="stroke:#FF0000;fill:none"
       id="path3232" />
    <path
       d="M 190.363589,479.140192 202.606605,484.849204"
       style="stroke:#000000;fill:none"
       id="path3234" />
    <path
       d="M 202.606605,484.849204 232.397942,498.741133"
       style="stroke:#000000;fill:none"
       id="path3236" />
    <path
       d="M 232.397942,498.741133 226.118029,512.208450"
       style="stroke:#000000;fill:none"
       id="path3238" />
    <path
       d="M 202.606605,484.849204 196.707292,497.500320"
       style="stroke:#000000;fill:none"
       id="path3240" />
  </g>
  <g
     inkscape:groupmode="layer"
     inkscape:label="ROOMS"
     id="g3242" />
  <g
     inkscape:groupmode="layer"
     inkscape:label="DOORS"
     id="g3244" />
  <g
     inkscape:groupmode="layer"
     inkscape:label="OUTLINE"
     id="g3246" />
  <g
     inkscape:groupmode="layer"
     inkscape:label="WINDOWS"
     id="g3248" />
  <g
     inkscape:groupmode="layer"
     inkscape:label="LAYER2"
     id="g3250" />
</svg>
